<?xml version="1.0" encoding="utf-8" standalone="no"?>
<!DOCTYPE svg PUBLIC "-//W3C//DTD SVG 1.1//EN"
  "http://www.w3.org/Graphics/SVG/1.1/DTD/svg11.dtd">
<!-- Created with matplotlib (http://matplotlib.org/) -->
<svg height="144pt" version="1.1" viewBox="0 0 720 144" width="720pt" xmlns="http://www.w3.org/2000/svg" xmlns:xlink="http://www.w3.org/1999/xlink">
 <defs>
  <style type="text/css">
*{stroke-linecap:butt;stroke-linejoin:round;}
  </style>
 </defs>
 <g id="figure_1">
  <g id="patch_1">
   <path d="
M0 144
L720 144
L720 0
L0 0
z
" style="fill:#ffffff;"/>
  </g>
  <g id="axes_1">
   <g id="patch_2">
    <path d="
M90 126
L648 126
L648 14.4
L90 14.4
z
" style="fill:#ffffff;"/>
   </g>
   <g id="patch_3">
    <path clip-path="url(#p1121387e8c)" d="
M90 126
L102.754 126
L102.754 50.4262
L90 50.4262
z
" style="fill:#262626;stroke:#000000;"/>
   </g>
   <g id="patch_4">
    <path clip-path="url(#p1121387e8c)" d="
M105.943 126
L118.697 126
L118.697 78.8341
L105.943 78.8341
z
" style="fill:#262626;stroke:#000000;"/>
   </g>
   <g id="patch_5">
    <path clip-path="url(#p1121387e8c)" d="
M121.886 126
L134.64 126
L134.64 49.5553
L121.886 49.5553
z
" style="fill:#262626;stroke:#000000;"/>
   </g>
   <g id="patch_6">
    <path clip-path="url(#p1121387e8c)" d="
M137.829 126
L150.583 126
L150.583 113.454
L137.829 113.454
z
" style="fill:#262626;stroke:#000000;"/>
   </g>
   <g id="patch_7">
    <path clip-path="url(#p1121387e8c)" d="
M153.771 126
L166.526 126
L166.526 57.8593
L153.771 57.8593
z
" style="fill:#262626;stroke:#000000;"/>
   </g>
   <g id="patch_8">
    <path clip-path="url(#p1121387e8c)" d="
M169.714 126
L182.469 126
L182.469 93.1565
L169.714 93.1565
z
" style="fill:#262626;stroke:#000000;"/>
   </g>
   <g id="patch_9">
    <path clip-path="url(#p1121387e8c)" d="
M185.657 126
L198.411 126
L198.411 63.1951
L185.657 63.1951
z
" style="fill:#262626;stroke:#000000;"/>
   </g>
   <g id="patch_10">
    <path clip-path="url(#p1121387e8c)" d="
M201.6 126
L214.354 126
L214.354 110.04
L201.6 110.04
z
" style="fill:#262626;stroke:#000000;"/>
   </g>
   <g id="patch_11">
    <path clip-path="url(#p1121387e8c)" d="
M217.543 126
L230.297 126
L230.297 111.091
L217.543 111.091
z
" style="fill:#262626;stroke:#000000;"/>
   </g>
   <g id="patch_12">
    <path clip-path="url(#p1121387e8c)" d="
M233.486 126
L246.24 126
L246.24 102.783
L233.486 102.783
z
" style="fill:#262626;stroke:#000000;"/>
   </g>
   <g id="patch_13">
    <path clip-path="url(#p1121387e8c)" d="
M249.429 126
L262.183 126
L262.183 106.225
L249.429 106.225
z
" style="fill:#262626;stroke:#000000;"/>
   </g>
   <g id="patch_14">
    <path clip-path="url(#p1121387e8c)" d="
M265.371 126
L278.126 126
L278.126 18.7741
L265.371 18.7741
z
" style="fill:#262626;stroke:#000000;"/>
   </g>
   <g id="patch_15">
    <path clip-path="url(#p1121387e8c)" d="
M281.314 126
L294.069 126
L294.069 32.1297
L281.314 32.1297
z
" style="fill:#262626;stroke:#000000;"/>
   </g>
   <g id="patch_16">
    <path clip-path="url(#p1121387e8c)" d="
M297.257 126
L310.011 126
L310.011 109.94
L297.257 109.94
z
" style="fill:#262626;stroke:#000000;"/>
   </g>
   <g id="patch_17">
    <path clip-path="url(#p1121387e8c)" d="
M313.2 126
L325.954 126
L325.954 112.658
L313.2 112.658
z
" style="fill:#262626;stroke:#000000;"/>
   </g>
   <g id="patch_18">
    <path clip-path="url(#p1121387e8c)" d="
M329.143 126
L341.897 126
L341.897 116.242
L329.143 116.242
z
" style="fill:#262626;stroke:#000000;"/>
   </g>
   <g id="patch_19">
    <path clip-path="url(#p1121387e8c)" d="
M345.086 126
L357.84 126
L357.84 106.551
L345.086 106.551
z
" style="fill:#262626;stroke:#000000;"/>
   </g>
   <g id="patch_20">
    <path clip-path="url(#p1121387e8c)" d="
M361.029 126
L373.783 126
L373.783 108.141
L361.029 108.141
z
" style="fill:#262626;stroke:#000000;"/>
   </g>
   <g id="patch_21">
    <path clip-path="url(#p1121387e8c)" d="
M376.971 126
L389.726 126
L389.726 111.409
L376.971 111.409
z
" style="fill:#262626;stroke:#000000;"/>
   </g>
   <g id="patch_22">
    <path clip-path="url(#p1121387e8c)" d="
M392.914 126
L405.669 126
L405.669 106.787
L392.914 106.787
z
" style="fill:#262626;stroke:#000000;"/>
   </g>
   <g id="patch_23">
    <path clip-path="url(#p1121387e8c)" d="
M408.857 126
L421.611 126
L421.611 45.7716
L408.857 45.7716
z
" style="fill:#262626;stroke:#000000;"/>
   </g>
   <g id="patch_24">
    <path clip-path="url(#p1121387e8c)" d="
M424.8 126
L437.554 126
L437.554 52.7747
L424.8 52.7747
z
" style="fill:#262626;stroke:#000000;"/>
   </g>
   <g id="patch_25">
    <path clip-path="url(#p1121387e8c)" d="
M440.743 126
L453.497 126
L453.497 117.459
L440.743 117.459
z
" style="fill:#262626;stroke:#000000;"/>
   </g>
   <g id="patch_26">
    <path clip-path="url(#p1121387e8c)" d="
M456.686 126
L469.44 126
L469.44 101.224
L456.686 101.224
z
" style="fill:#262626;stroke:#000000;"/>
   </g>
   <g id="patch_27">
    <path clip-path="url(#p1121387e8c)" d="
M472.629 126
L485.383 126
L485.383 111.309
L472.629 111.309
z
" style="fill:#262626;stroke:#000000;"/>
   </g>
   <g id="patch_28">
    <path clip-path="url(#p1121387e8c)" d="
M488.571 126
L501.326 126
L501.326 60.8063
L488.571 60.8063
z
" style="fill:#262626;stroke:#000000;"/>
   </g>
   <g id="patch_29">
    <path clip-path="url(#p1121387e8c)" d="
M504.514 126
L517.269 126
L517.269 110.4
L504.514 110.4
z
" style="fill:#262626;stroke:#000000;"/>
   </g>
   <g id="patch_30">
    <path clip-path="url(#p1121387e8c)" d="
M520.457 126
L533.211 126
L533.211 110.396
L520.457 110.396
z
" style="fill:#262626;stroke:#000000;"/>
   </g>
   <g id="patch_31">
    <path clip-path="url(#p1121387e8c)" d="
M536.4 126
L549.154 126
L549.154 112.524
L536.4 112.524
z
" style="fill:#262626;stroke:#000000;"/>
   </g>
   <g id="patch_32">
    <path clip-path="url(#p1121387e8c)" d="
M552.343 126
L565.097 126
L565.097 62.6681
L552.343 62.6681
z
" style="fill:#262626;stroke:#000000;"/>
   </g>
   <g id="patch_33">
    <path clip-path="url(#p1121387e8c)" d="
M568.286 126
L581.04 126
L581.04 64.0787
L568.286 64.0787
z
" style="fill:#262626;stroke:#000000;"/>
   </g>
   <g id="patch_34">
    <path clip-path="url(#p1121387e8c)" d="
M584.229 126
L596.983 126
L596.983 110.023
L584.229 110.023
z
" style="fill:#262626;stroke:#000000;"/>
   </g>
   <g id="patch_35">
    <path clip-path="url(#p1121387e8c)" d="
M600.171 126
L612.926 126
L612.926 67.7042
L600.171 67.7042
z
" style="fill:#262626;stroke:#000000;"/>
   </g>
   <g id="patch_36">
    <path clip-path="url(#p1121387e8c)" d="
M616.114 126
L628.869 126
L628.869 107.579
L616.114 107.579
z
" style="fill:#262626;stroke:#000000;"/>
   </g>
   <g id="matplotlib.axis_1">
    <g id="xtick_1">
     <g id="line2d_1">
      <defs>
       <path d="
M0 0
L0 -4" id="m93b0483c22" style="stroke:#000000;stroke-width:0.5;"/>
      </defs>
      <g>
       <use style="stroke:#000000;stroke-width:0.5;" x="90.0" xlink:href="#m93b0483c22" y="126.0"/>
      </g>
     </g>
     <g id="line2d_2">
      <defs>
       <path d="
M0 0
L0 4" id="m741efc42ff" style="stroke:#000000;stroke-width:0.5;"/>
      </defs>
      <g>
       <use style="stroke:#000000;stroke-width:0.5;" x="90.0" xlink:href="#m741efc42ff" y="14.4"/>
      </g>
     </g>
     <g id="text_1">
      <!-- 0 -->
      <defs>
       <path d="
M31.7812 66.4062
Q24.1719 66.4062 20.3281 58.9062
Q16.5 51.4219 16.5 36.375
Q16.5 21.3906 20.3281 13.8906
Q24.1719 6.39062 31.7812 6.39062
Q39.4531 6.39062 43.2812 13.8906
Q47.125 21.3906 47.125 36.375
Q47.125 51.4219 43.2812 58.9062
Q39.4531 66.4062 31.7812 66.4062
M31.7812 74.2188
Q44.0469 74.2188 50.5156 64.5156
Q56.9844 54.8281 56.9844 36.375
Q56.9844 17.9688 50.5156 8.26562
Q44.0469 -1.42188 31.7812 -1.42188
Q19.5312 -1.42188 13.0625 8.26562
Q6.59375 17.9688 6.59375 36.375
Q6.59375 54.8281 13.0625 64.5156
Q19.5312 74.2188 31.7812 74.2188" id="BitstreamVeraSans-Roman-30"/>
      </defs>
      <g transform="translate(87.48046875 137.5984375)scale(0.1 -0.1)">
       <use xlink:href="#BitstreamVeraSans-Roman-30"/>
      </g>
     </g>
    </g>
    <g id="xtick_2">
     <g id="line2d_3">
      <g>
       <use style="stroke:#000000;stroke-width:0.5;" x="169.714285714" xlink:href="#m93b0483c22" y="126.0"/>
      </g>
     </g>
     <g id="line2d_4">
      <g>
       <use style="stroke:#000000;stroke-width:0.5;" x="169.714285714" xlink:href="#m741efc42ff" y="14.4"/>
      </g>
     </g>
     <g id="text_2">
      <!-- 5 -->
      <defs>
       <path d="
M10.7969 72.9062
L49.5156 72.9062
L49.5156 64.5938
L19.8281 64.5938
L19.8281 46.7344
Q21.9688 47.4688 24.1094 47.8281
Q26.2656 48.1875 28.4219 48.1875
Q40.625 48.1875 47.75 41.5
Q54.8906 34.8125 54.8906 23.3906
Q54.8906 11.625 47.5625 5.09375
Q40.2344 -1.42188 26.9062 -1.42188
Q22.3125 -1.42188 17.5469 -0.640625
Q12.7969 0.140625 7.71875 1.70312
L7.71875 11.625
Q12.1094 9.23438 16.7969 8.0625
Q21.4844 6.89062 26.7031 6.89062
Q35.1562 6.89062 40.0781 11.3281
Q45.0156 15.7656 45.0156 23.3906
Q45.0156 31 40.0781 35.4375
Q35.1562 39.8906 26.7031 39.8906
Q22.75 39.8906 18.8125 39.0156
Q14.8906 38.1406 10.7969 36.2812
z
" id="BitstreamVeraSans-Roman-35"/>
      </defs>
      <g transform="translate(167.355691964 137.5984375)scale(0.1 -0.1)">
       <use xlink:href="#BitstreamVeraSans-Roman-35"/>
      </g>
     </g>
    </g>
    <g id="xtick_3">
     <g id="line2d_5">
      <g>
       <use style="stroke:#000000;stroke-width:0.5;" x="249.428571429" xlink:href="#m93b0483c22" y="126.0"/>
      </g>
     </g>
     <g id="line2d_6">
      <g>
       <use style="stroke:#000000;stroke-width:0.5;" x="249.428571429" xlink:href="#m741efc42ff" y="14.4"/>
      </g>
     </g>
     <g id="text_3">
      <!-- 10 -->
      <defs>
       <path d="
M12.4062 8.29688
L28.5156 8.29688
L28.5156 63.9219
L10.9844 60.4062
L10.9844 69.3906
L28.4219 72.9062
L38.2812 72.9062
L38.2812 8.29688
L54.3906 8.29688
L54.3906 0
L12.4062 0
z
" id="BitstreamVeraSans-Roman-31"/>
      </defs>
      <g transform="translate(243.947321429 137.5984375)scale(0.1 -0.1)">
       <use xlink:href="#BitstreamVeraSans-Roman-31"/>
       <use x="63.623046875" xlink:href="#BitstreamVeraSans-Roman-30"/>
      </g>
     </g>
    </g>
    <g id="xtick_4">
     <g id="line2d_7">
      <g>
       <use style="stroke:#000000;stroke-width:0.5;" x="329.142857143" xlink:href="#m93b0483c22" y="126.0"/>
      </g>
     </g>
     <g id="line2d_8">
      <g>
       <use style="stroke:#000000;stroke-width:0.5;" x="329.142857143" xlink:href="#m741efc42ff" y="14.4"/>
      </g>
     </g>
     <g id="text_4">
      <!-- 15 -->
      <g transform="translate(323.766294643 137.5984375)scale(0.1 -0.1)">
       <use xlink:href="#BitstreamVeraSans-Roman-31"/>
       <use x="63.623046875" xlink:href="#BitstreamVeraSans-Roman-35"/>
      </g>
     </g>
    </g>
    <g id="xtick_5">
     <g id="line2d_9">
      <g>
       <use style="stroke:#000000;stroke-width:0.5;" x="408.857142857" xlink:href="#m93b0483c22" y="126.0"/>
      </g>
     </g>
     <g id="line2d_10">
      <g>
       <use style="stroke:#000000;stroke-width:0.5;" x="408.857142857" xlink:href="#m741efc42ff" y="14.4"/>
      </g>
     </g>
     <g id="text_5">
      <!-- 20 -->
      <defs>
       <path d="
M19.1875 8.29688
L53.6094 8.29688
L53.6094 0
L7.32812 0
L7.32812 8.29688
Q12.9375 14.1094 22.625 23.8906
Q32.3281 33.6875 34.8125 36.5312
Q39.5469 41.8438 41.4219 45.5312
Q43.3125 49.2188 43.3125 52.7812
Q43.3125 58.5938 39.2344 62.25
Q35.1562 65.9219 28.6094 65.9219
Q23.9688 65.9219 18.8125 64.3125
Q13.6719 62.7031 7.8125 59.4219
L7.8125 69.3906
Q13.7656 71.7812 18.9375 73
Q24.125 74.2188 28.4219 74.2188
Q39.75 74.2188 46.4844 68.5469
Q53.2188 62.8906 53.2188 53.4219
Q53.2188 48.9219 51.5312 44.8906
Q49.8594 40.875 45.4062 35.4062
Q44.1875 33.9844 37.6406 27.2188
Q31.1094 20.4531 19.1875 8.29688" id="BitstreamVeraSans-Roman-32"/>
      </defs>
      <g transform="translate(403.193080357 137.5984375)scale(0.1 -0.1)">
       <use xlink:href="#BitstreamVeraSans-Roman-32"/>
       <use x="63.623046875" xlink:href="#BitstreamVeraSans-Roman-30"/>
      </g>
     </g>
    </g>
    <g id="xtick_6">
     <g id="line2d_11">
      <g>
       <use style="stroke:#000000;stroke-width:0.5;" x="488.571428571" xlink:href="#m93b0483c22" y="126.0"/>
      </g>
     </g>
     <g id="line2d_12">
      <g>
       <use style="stroke:#000000;stroke-width:0.5;" x="488.571428571" xlink:href="#m741efc42ff" y="14.4"/>
      </g>
     </g>
     <g id="text_6">
      <!-- 25 -->
      <g transform="translate(483.012053571 137.5984375)scale(0.1 -0.1)">
       <use xlink:href="#BitstreamVeraSans-Roman-32"/>
       <use x="63.623046875" xlink:href="#BitstreamVeraSans-Roman-35"/>
      </g>
     </g>
    </g>
    <g id="xtick_7">
     <g id="line2d_13">
      <g>
       <use style="stroke:#000000;stroke-width:0.5;" x="568.285714286" xlink:href="#m93b0483c22" y="126.0"/>
      </g>
     </g>
     <g id="line2d_14">
      <g>
       <use style="stroke:#000000;stroke-width:0.5;" x="568.285714286" xlink:href="#m741efc42ff" y="14.4"/>
      </g>
     </g>
     <g id="text_7">
      <!-- 30 -->
      <defs>
       <path d="
M40.5781 39.3125
Q47.6562 37.7969 51.625 33
Q55.6094 28.2188 55.6094 21.1875
Q55.6094 10.4062 48.1875 4.48438
Q40.7656 -1.42188 27.0938 -1.42188
Q22.5156 -1.42188 17.6562 -0.515625
Q12.7969 0.390625 7.625 2.20312
L7.625 11.7188
Q11.7188 9.32812 16.5938 8.10938
Q21.4844 6.89062 26.8125 6.89062
Q36.0781 6.89062 40.9375 10.5469
Q45.7969 14.2031 45.7969 21.1875
Q45.7969 27.6406 41.2812 31.2656
Q36.7656 34.9062 28.7188 34.9062
L20.2188 34.9062
L20.2188 43.0156
L29.1094 43.0156
Q36.375 43.0156 40.2344 45.9219
Q44.0938 48.8281 44.0938 54.2969
Q44.0938 59.9062 40.1094 62.9062
Q36.1406 65.9219 28.7188 65.9219
Q24.6562 65.9219 20.0156 65.0312
Q15.375 64.1562 9.8125 62.3125
L9.8125 71.0938
Q15.4375 72.6562 20.3438 73.4375
Q25.25 74.2188 29.5938 74.2188
Q40.8281 74.2188 47.3594 69.1094
Q53.9062 64.0156 53.9062 55.3281
Q53.9062 49.2656 50.4375 45.0938
Q46.9688 40.9219 40.5781 39.3125" id="BitstreamVeraSans-Roman-33"/>
      </defs>
      <g transform="translate(562.636495536 137.5984375)scale(0.1 -0.1)">
       <use xlink:href="#BitstreamVeraSans-Roman-33"/>
       <use x="63.623046875" xlink:href="#BitstreamVeraSans-Roman-30"/>
      </g>
     </g>
    </g>
    <g id="xtick_8">
     <g id="line2d_15">
      <g>
       <use style="stroke:#000000;stroke-width:0.5;" x="648.0" xlink:href="#m93b0483c22" y="126.0"/>
      </g>
     </g>
     <g id="line2d_16">
      <g>
       <use style="stroke:#000000;stroke-width:0.5;" x="648.0" xlink:href="#m741efc42ff" y="14.4"/>
      </g>
     </g>
     <g id="text_8">
      <!-- 35 -->
      <g transform="translate(642.45546875 137.5984375)scale(0.1 -0.1)">
       <use xlink:href="#BitstreamVeraSans-Roman-33"/>
       <use x="63.623046875" xlink:href="#BitstreamVeraSans-Roman-35"/>
      </g>
     </g>
    </g>
   </g>
   <g id="matplotlib.axis_2">
    <g id="ytick_1">
     <g id="line2d_17">
      <defs>
       <path d="
M0 0
L4 0" id="m728421d6d4" style="stroke:#000000;stroke-width:0.5;"/>
      </defs>
      <g>
       <use style="stroke:#000000;stroke-width:0.5;" x="90.0" xlink:href="#m728421d6d4" y="126.0"/>
      </g>
     </g>
     <g id="line2d_18">
      <defs>
       <path d="
M0 0
L-4 0" id="mcb0005524f" style="stroke:#000000;stroke-width:0.5;"/>
      </defs>
      <g>
       <use style="stroke:#000000;stroke-width:0.5;" x="648.0" xlink:href="#mcb0005524f" y="126.0"/>
      </g>
     </g>
     <g id="text_9">
      <!-- 0 -->
      <g transform="translate(80.9609375 128.759375)scale(0.1 -0.1)">
       <use xlink:href="#BitstreamVeraSans-Roman-30"/>
      </g>
     </g>
    </g>
    <g id="ytick_2">
     <g id="line2d_19">
      <g>
       <use style="stroke:#000000;stroke-width:0.5;" x="90.0" xlink:href="#m728421d6d4" y="107.4"/>
      </g>
     </g>
     <g id="line2d_20">
      <g>
       <use style="stroke:#000000;stroke-width:0.5;" x="648.0" xlink:href="#mcb0005524f" y="107.4"/>
      </g>
     </g>
     <g id="text_10">
      <!-- 1000000 -->
      <g transform="translate(43.225 110.159375)scale(0.1 -0.1)">
       <use xlink:href="#BitstreamVeraSans-Roman-31"/>
       <use x="63.623046875" xlink:href="#BitstreamVeraSans-Roman-30"/>
       <use x="127.24609375" xlink:href="#BitstreamVeraSans-Roman-30"/>
       <use x="190.869140625" xlink:href="#BitstreamVeraSans-Roman-30"/>
       <use x="254.4921875" xlink:href="#BitstreamVeraSans-Roman-30"/>
       <use x="318.115234375" xlink:href="#BitstreamVeraSans-Roman-30"/>
       <use x="381.73828125" xlink:href="#BitstreamVeraSans-Roman-30"/>
      </g>
     </g>
    </g>
    <g id="ytick_3">
     <g id="line2d_21">
      <g>
       <use style="stroke:#000000;stroke-width:0.5;" x="90.0" xlink:href="#m728421d6d4" y="88.8"/>
      </g>
     </g>
     <g id="line2d_22">
      <g>
       <use style="stroke:#000000;stroke-width:0.5;" x="648.0" xlink:href="#mcb0005524f" y="88.8"/>
      </g>
     </g>
     <g id="text_11">
      <!-- 2000000 -->
      <g transform="translate(42.859375 91.559375)scale(0.1 -0.1)">
       <use xlink:href="#BitstreamVeraSans-Roman-32"/>
       <use x="63.623046875" xlink:href="#BitstreamVeraSans-Roman-30"/>
       <use x="127.24609375" xlink:href="#BitstreamVeraSans-Roman-30"/>
       <use x="190.869140625" xlink:href="#BitstreamVeraSans-Roman-30"/>
       <use x="254.4921875" xlink:href="#BitstreamVeraSans-Roman-30"/>
       <use x="318.115234375" xlink:href="#BitstreamVeraSans-Roman-30"/>
       <use x="381.73828125" xlink:href="#BitstreamVeraSans-Roman-30"/>
      </g>
     </g>
    </g>
    <g id="ytick_4">
     <g id="line2d_23">
      <g>
       <use style="stroke:#000000;stroke-width:0.5;" x="90.0" xlink:href="#m728421d6d4" y="70.2"/>
      </g>
     </g>
     <g id="line2d_24">
      <g>
       <use style="stroke:#000000;stroke-width:0.5;" x="648.0" xlink:href="#mcb0005524f" y="70.2"/>
      </g>
     </g>
     <g id="text_12">
      <!-- 3000000 -->
      <g transform="translate(42.8890625 72.959375)scale(0.1 -0.1)">
       <use xlink:href="#BitstreamVeraSans-Roman-33"/>
       <use x="63.623046875" xlink:href="#BitstreamVeraSans-Roman-30"/>
       <use x="127.24609375" xlink:href="#BitstreamVeraSans-Roman-30"/>
       <use x="190.869140625" xlink:href="#BitstreamVeraSans-Roman-30"/>
       <use x="254.4921875" xlink:href="#BitstreamVeraSans-Roman-30"/>
       <use x="318.115234375" xlink:href="#BitstreamVeraSans-Roman-30"/>
       <use x="381.73828125" xlink:href="#BitstreamVeraSans-Roman-30"/>
      </g>
     </g>
    </g>
    <g id="ytick_5">
     <g id="line2d_25">
      <g>
       <use style="stroke:#000000;stroke-width:0.5;" x="90.0" xlink:href="#m728421d6d4" y="51.6"/>
      </g>
     </g>
     <g id="line2d_26">
      <g>
       <use style="stroke:#000000;stroke-width:0.5;" x="648.0" xlink:href="#mcb0005524f" y="51.6"/>
      </g>
     </g>
     <g id="text_13">
      <!-- 4000000 -->
      <defs>
       <path d="
M37.7969 64.3125
L12.8906 25.3906
L37.7969 25.3906
z

M35.2031 72.9062
L47.6094 72.9062
L47.6094 25.3906
L58.0156 25.3906
L58.0156 17.1875
L47.6094 17.1875
L47.6094 0
L37.7969 0
L37.7969 17.1875
L4.89062 17.1875
L4.89062 26.7031
z
" id="BitstreamVeraSans-Roman-34"/>
      </defs>
      <g transform="translate(42.615625 54.359375)scale(0.1 -0.1)">
       <use xlink:href="#BitstreamVeraSans-Roman-34"/>
       <use x="63.623046875" xlink:href="#BitstreamVeraSans-Roman-30"/>
       <use x="127.24609375" xlink:href="#BitstreamVeraSans-Roman-30"/>
       <use x="190.869140625" xlink:href="#BitstreamVeraSans-Roman-30"/>
       <use x="254.4921875" xlink:href="#BitstreamVeraSans-Roman-30"/>
       <use x="318.115234375" xlink:href="#BitstreamVeraSans-Roman-30"/>
       <use x="381.73828125" xlink:href="#BitstreamVeraSans-Roman-30"/>
      </g>
     </g>
    </g>
    <g id="ytick_6">
     <g id="line2d_27">
      <g>
       <use style="stroke:#000000;stroke-width:0.5;" x="90.0" xlink:href="#m728421d6d4" y="33.0"/>
      </g>
     </g>
     <g id="line2d_28">
      <g>
       <use style="stroke:#000000;stroke-width:0.5;" x="648.0" xlink:href="#mcb0005524f" y="33.0"/>
      </g>
     </g>
     <g id="text_14">
      <!-- 5000000 -->
      <g transform="translate(42.8984375 35.759375)scale(0.1 -0.1)">
       <use xlink:href="#BitstreamVeraSans-Roman-35"/>
       <use x="63.623046875" xlink:href="#BitstreamVeraSans-Roman-30"/>
       <use x="127.24609375" xlink:href="#BitstreamVeraSans-Roman-30"/>
       <use x="190.869140625" xlink:href="#BitstreamVeraSans-Roman-30"/>
       <use x="254.4921875" xlink:href="#BitstreamVeraSans-Roman-30"/>
       <use x="318.115234375" xlink:href="#BitstreamVeraSans-Roman-30"/>
       <use x="381.73828125" xlink:href="#BitstreamVeraSans-Roman-30"/>
      </g>
     </g>
    </g>
    <g id="ytick_7">
     <g id="line2d_29">
      <g>
       <use style="stroke:#000000;stroke-width:0.5;" x="90.0" xlink:href="#m728421d6d4" y="14.4"/>
      </g>
     </g>
     <g id="line2d_30">
      <g>
       <use style="stroke:#000000;stroke-width:0.5;" x="648.0" xlink:href="#mcb0005524f" y="14.4"/>
      </g>
     </g>
     <g id="text_15">
      <!-- 6000000 -->
      <defs>
       <path d="
M33.0156 40.375
Q26.375 40.375 22.4844 35.8281
Q18.6094 31.2969 18.6094 23.3906
Q18.6094 15.5312 22.4844 10.9531
Q26.375 6.39062 33.0156 6.39062
Q39.6562 6.39062 43.5312 10.9531
Q47.4062 15.5312 47.4062 23.3906
Q47.4062 31.2969 43.5312 35.8281
Q39.6562 40.375 33.0156 40.375
M52.5938 71.2969
L52.5938 62.3125
Q48.875 64.0625 45.0938 64.9844
Q41.3125 65.9219 37.5938 65.9219
Q27.8281 65.9219 22.6719 59.3281
Q17.5312 52.7344 16.7969 39.4062
Q19.6719 43.6562 24.0156 45.9219
Q28.375 48.1875 33.5938 48.1875
Q44.5781 48.1875 50.9531 41.5156
Q57.3281 34.8594 57.3281 23.3906
Q57.3281 12.1562 50.6875 5.35938
Q44.0469 -1.42188 33.0156 -1.42188
Q20.3594 -1.42188 13.6719 8.26562
Q6.98438 17.9688 6.98438 36.375
Q6.98438 53.6562 15.1875 63.9375
Q23.3906 74.2188 37.2031 74.2188
Q40.9219 74.2188 44.7031 73.4844
Q48.4844 72.75 52.5938 71.2969" id="BitstreamVeraSans-Roman-36"/>
      </defs>
      <g transform="translate(42.825 17.159375)scale(0.1 -0.1)">
       <use xlink:href="#BitstreamVeraSans-Roman-36"/>
       <use x="63.623046875" xlink:href="#BitstreamVeraSans-Roman-30"/>
       <use x="127.24609375" xlink:href="#BitstreamVeraSans-Roman-30"/>
       <use x="190.869140625" xlink:href="#BitstreamVeraSans-Roman-30"/>
       <use x="254.4921875" xlink:href="#BitstreamVeraSans-Roman-30"/>
       <use x="318.115234375" xlink:href="#BitstreamVeraSans-Roman-30"/>
       <use x="381.73828125" xlink:href="#BitstreamVeraSans-Roman-30"/>
      </g>
     </g>
    </g>
   </g>
   <g id="patch_37">
    <path d="
M90 14.4
L648 14.4" style="fill:none;stroke:#000000;"/>
   </g>
   <g id="patch_38">
    <path d="
M648 126
L648 14.4" style="fill:none;stroke:#000000;"/>
   </g>
   <g id="patch_39">
    <path d="
M90 126
L648 126" style="fill:none;stroke:#000000;"/>
   </g>
   <g id="patch_40">
    <path d="
M90 126
L90 14.4" style="fill:none;stroke:#000000;"/>
   </g>
  </g>
 </g>
 <defs>
  <clipPath id="p1121387e8c">
   <rect height="111.6" width="558.0" x="90.0" y="14.4"/>
  </clipPath>
 </defs>
</svg>
