<?xml version="1.0" encoding="utf-8" standalone="no"?>
<!DOCTYPE svg PUBLIC "-//W3C//DTD SVG 1.1//EN"
  "http://www.w3.org/Graphics/SVG/1.1/DTD/svg11.dtd">
<!-- Created with matplotlib (http://matplotlib.org/) -->
<svg height="72pt" version="1.1" viewBox="0 0 720 72" width="720pt" xmlns="http://www.w3.org/2000/svg" xmlns:xlink="http://www.w3.org/1999/xlink">
 <defs>
  <style type="text/css">
*{stroke-linecap:butt;stroke-linejoin:round;}
  </style>
 </defs>
 <g id="figure_1">
  <g id="patch_1">
   <path d="
M0 72
L720 72
L720 0
L0 0
z
" style="fill:#ffffff;"/>
  </g>
  <g id="axes_1">
   <g id="patch_2">
    <path d="
M90 63
L648 63
L648 7.2
L90 7.2
z
" style="fill:#eaeaf2;"/>
   </g>
   <g id="matplotlib.axis_1"/>
   <g id="matplotlib.axis_2"/>
   <g id="patch_3">
    <path clip-path="url(#p9ded5c0493)" d="
M90 63
L109.633 63
L109.633 22.5912
L90 22.5912
z
" style="fill:#8dd3c7;"/>
   </g>
   <g id="patch_4">
    <path clip-path="url(#p9ded5c0493)" d="
M110.667 63
L130.3 63
L130.3 22.8854
L110.667 22.8854
z
" style="fill:#8dd3c7;"/>
   </g>
   <g id="patch_5">
    <path clip-path="url(#p9ded5c0493)" d="
M131.333 63
L150.967 63
L150.967 22.4963
L131.333 22.4963
z
" style="fill:#8dd3c7;"/>
   </g>
   <g id="patch_6">
    <path clip-path="url(#p9ded5c0493)" d="
M152 63
L171.633 63
L171.633 24.6208
L152 24.6208
z
" style="fill:#8dd3c7;"/>
   </g>
   <g id="patch_7">
    <path clip-path="url(#p9ded5c0493)" d="
M172.667 63
L192.3 63
L192.3 20.4259
L172.667 20.4259
z
" style="fill:#8dd3c7;"/>
   </g>
   <g id="patch_8">
    <path clip-path="url(#p9ded5c0493)" d="
M193.333 63
L212.967 63
L212.967 23.103
L193.333 23.103
z
" style="fill:#8dd3c7;"/>
   </g>
   <g id="patch_9">
    <path clip-path="url(#p9ded5c0493)" d="
M214 63
L233.633 63
L233.633 23.0528
L214 23.0528
z
" style="fill:#8dd3c7;"/>
   </g>
   <g id="patch_10">
    <path clip-path="url(#p9ded5c0493)" d="
M234.667 63
L254.3 63
L254.3 21.2672
L234.667 21.2672
z
" style="fill:#8dd3c7;"/>
   </g>
   <g id="patch_11">
    <path clip-path="url(#p9ded5c0493)" d="
M255.333 63
L274.967 63
L274.967 22.9747
L255.333 22.9747
z
" style="fill:#8dd3c7;"/>
   </g>
   <g id="patch_12">
    <path clip-path="url(#p9ded5c0493)" d="
M276 63
L295.633 63
L295.633 25.2977
L276 25.2977
z
" style="fill:#8dd3c7;"/>
   </g>
   <g id="patch_13">
    <path clip-path="url(#p9ded5c0493)" d="
M296.667 63
L316.3 63
L316.3 29.1629
L296.667 29.1629
z
" style="fill:#8dd3c7;"/>
   </g>
   <g id="patch_14">
    <path clip-path="url(#p9ded5c0493)" d="
M317.333 63
L336.967 63
L336.967 24.219
L317.333 24.219
z
" style="fill:#8dd3c7;"/>
   </g>
   <g id="patch_15">
    <path clip-path="url(#p9ded5c0493)" d="
M338 63
L357.633 63
L357.633 40.6052
L338 40.6052
z
" style="fill:#8dd3c7;"/>
   </g>
   <g id="patch_16">
    <path clip-path="url(#p9ded5c0493)" d="
M358.667 63
L378.3 63
L378.3 44.9041
L358.667 44.9041
z
" style="fill:#8dd3c7;"/>
   </g>
   <g id="patch_17">
    <path clip-path="url(#p9ded5c0493)" d="
M379.333 63
L398.967 63
L398.967 45.6054
L379.333 45.6054
z
" style="fill:#8dd3c7;"/>
   </g>
   <g id="patch_18">
    <path clip-path="url(#p9ded5c0493)" d="
M400 63
L419.633 63
L419.633 59.5516
L400 59.5516
z
" style="fill:#8dd3c7;"/>
   </g>
   <g id="patch_19">
    <path clip-path="url(#p9ded5c0493)" d="
M420.667 63
L440.3 63
L440.3 62.4643
L420.667 62.4643
z
" style="fill:#8dd3c7;"/>
   </g>
   <g id="patch_20">
    <path clip-path="url(#p9ded5c0493)" d="
M441.333 63
L460.967 63
L460.967 62.9665
L441.333 62.9665
z
" style="fill:#8dd3c7;"/>
   </g>
   <g id="patch_21">
    <path clip-path="url(#p9ded5c0493)" d="
M462 63
L481.633 63
L481.633 63
L462 63
z
" style="fill:#8dd3c7;"/>
   </g>
   <g id="patch_22">
    <path clip-path="url(#p9ded5c0493)" d="
M482.667 63
L502.3 63
L502.3 63
L482.667 63
z
" style="fill:#8dd3c7;"/>
   </g>
   <g id="patch_23">
    <path clip-path="url(#p9ded5c0493)" d="
M503.333 63
L522.967 63
L522.967 63
L503.333 63
z
" style="fill:#8dd3c7;"/>
   </g>
   <g id="patch_24">
    <path clip-path="url(#p9ded5c0493)" d="
M524 63
L543.633 63
L543.633 62.9665
L524 62.9665
z
" style="fill:#8dd3c7;"/>
   </g>
   <g id="patch_25">
    <path clip-path="url(#p9ded5c0493)" d="
M544.667 63
L564.3 63
L564.3 62.9888
L544.667 62.9888
z
" style="fill:#8dd3c7;"/>
   </g>
   <g id="patch_26">
    <path clip-path="url(#p9ded5c0493)" d="
M565.333 63
L584.967 63
L584.967 53.4136
L565.333 53.4136
z
" style="fill:#8dd3c7;"/>
   </g>
   <g id="patch_27">
    <path clip-path="url(#p9ded5c0493)" d="
M586 63
L605.633 63
L605.633 55.1489
L586 55.1489
z
" style="fill:#8dd3c7;"/>
   </g>
   <g id="patch_28">
    <path clip-path="url(#p9ded5c0493)" d="
M606.667 63
L626.3 63
L626.3 46.563
L606.667 46.563
z
" style="fill:#8dd3c7;"/>
   </g>
   <g id="patch_29">
    <path clip-path="url(#p9ded5c0493)" d="
M627.333 63
L646.967 63
L646.967 43.2635
L627.333 43.2635
z
" style="fill:#8dd3c7;"/>
   </g>
   <g id="patch_30">
    <path clip-path="url(#p9ded5c0493)" d="
M90 22.5912
L109.633 22.5912
L109.633 19.6837
L90 19.6837
z
" style="fill:#b3de69;"/>
   </g>
   <g id="patch_31">
    <path clip-path="url(#p9ded5c0493)" d="
M110.667 22.8854
L130.3 22.8854
L130.3 22.6789
L110.667 22.6789
z
" style="fill:#b3de69;"/>
   </g>
   <g id="patch_32">
    <path clip-path="url(#p9ded5c0493)" d="
M131.333 22.4963
L150.967 22.4963
L150.967 21.6592
L131.333 21.6592
z
" style="fill:#b3de69;"/>
   </g>
   <g id="patch_33">
    <path clip-path="url(#p9ded5c0493)" d="
M152 24.6208
L171.633 24.6208
L171.633 24.3418
L152 24.3418
z
" style="fill:#b3de69;"/>
   </g>
   <g id="patch_34">
    <path clip-path="url(#p9ded5c0493)" d="
M172.667 20.4259
L192.3 20.4259
L192.3 19.6056
L172.667 19.6056
z
" style="fill:#b3de69;"/>
   </g>
   <g id="patch_35">
    <path clip-path="url(#p9ded5c0493)" d="
M193.333 23.103
L212.967 23.103
L212.967 22.4278
L193.333 22.4278
z
" style="fill:#b3de69;"/>
   </g>
   <g id="patch_36">
    <path clip-path="url(#p9ded5c0493)" d="
M214 23.0528
L233.633 23.0528
L233.633 22.1935
L214 22.1935
z
" style="fill:#b3de69;"/>
   </g>
   <g id="patch_37">
    <path clip-path="url(#p9ded5c0493)" d="
M234.667 21.2672
L254.3 21.2672
L254.3 17.7853
L234.667 17.7853
z
" style="fill:#b3de69;"/>
   </g>
   <g id="patch_38">
    <path clip-path="url(#p9ded5c0493)" d="
M255.333 22.9747
L274.967 22.9747
L274.967 19.7662
L255.333 19.7662
z
" style="fill:#b3de69;"/>
   </g>
   <g id="patch_39">
    <path clip-path="url(#p9ded5c0493)" d="
M276 25.2977
L295.633 25.2977
L295.633 18.8522
L276 18.8522
z
" style="fill:#b3de69;"/>
   </g>
   <g id="patch_40">
    <path clip-path="url(#p9ded5c0493)" d="
M296.667 29.1629
L316.3 29.1629
L316.3 28.9062
L296.667 28.9062
z
" style="fill:#b3de69;"/>
   </g>
   <g id="patch_41">
    <path clip-path="url(#p9ded5c0493)" d="
M317.333 24.219
L336.967 24.219
L336.967 22.3162
L317.333 22.3162
z
" style="fill:#b3de69;"/>
   </g>
   <g id="patch_42">
    <path clip-path="url(#p9ded5c0493)" d="
M338 40.6052
L357.633 40.6052
L357.633 35.1474
L338 35.1474
z
" style="fill:#b3de69;"/>
   </g>
   <g id="patch_43">
    <path clip-path="url(#p9ded5c0493)" d="
M358.667 44.9041
L378.3 44.9041
L378.3 40.2727
L358.667 40.2727
z
" style="fill:#b3de69;"/>
   </g>
   <g id="patch_44">
    <path clip-path="url(#p9ded5c0493)" d="
M379.333 45.6054
L398.967 45.6054
L398.967 41.2135
L379.333 41.2135
z
" style="fill:#b3de69;"/>
   </g>
   <g id="patch_45">
    <path clip-path="url(#p9ded5c0493)" d="
M400 59.5516
L419.633 59.5516
L419.633 55.3945
L400 55.3945
z
" style="fill:#b3de69;"/>
   </g>
   <g id="patch_46">
    <path clip-path="url(#p9ded5c0493)" d="
M420.667 62.4643
L440.3 62.4643
L440.3 60.701
L420.667 60.701
z
" style="fill:#b3de69;"/>
   </g>
   <g id="patch_47">
    <path clip-path="url(#p9ded5c0493)" d="
M441.333 62.9665
L460.967 62.9665
L460.967 62.0068
L441.333 62.0068
z
" style="fill:#b3de69;"/>
   </g>
   <g id="patch_48">
    <path clip-path="url(#p9ded5c0493)" d="
M462 63
L481.633 63
L481.633 62.9833
L462 62.9833
z
" style="fill:#b3de69;"/>
   </g>
   <g id="patch_49">
    <path clip-path="url(#p9ded5c0493)" d="
M482.667 63
L502.3 63
L502.3 62.8159
L482.667 62.8159
z
" style="fill:#b3de69;"/>
   </g>
   <g id="patch_50">
    <path clip-path="url(#p9ded5c0493)" d="
M503.333 63
L522.967 63
L522.967 62.6875
L503.333 62.6875
z
" style="fill:#b3de69;"/>
   </g>
   <g id="patch_51">
    <path clip-path="url(#p9ded5c0493)" d="
M524 62.9665
L543.633 62.9665
L543.633 61.5157
L524 61.5157
z
" style="fill:#b3de69;"/>
   </g>
   <g id="patch_52">
    <path clip-path="url(#p9ded5c0493)" d="
M544.667 62.9888
L564.3 62.9888
L564.3 61.2646
L544.667 61.2646
z
" style="fill:#b3de69;"/>
   </g>
   <g id="patch_53">
    <path clip-path="url(#p9ded5c0493)" d="
M565.333 53.4136
L584.967 53.4136
L584.967 52.4761
L565.333 52.4761
z
" style="fill:#b3de69;"/>
   </g>
   <g id="patch_54">
    <path clip-path="url(#p9ded5c0493)" d="
M586 55.1489
L605.633 55.1489
L605.633 53.9716
L586 53.9716
z
" style="fill:#b3de69;"/>
   </g>
   <g id="patch_55">
    <path clip-path="url(#p9ded5c0493)" d="
M606.667 46.563
L626.3 46.563
L626.3 45.6703
L606.667 45.6703
z
" style="fill:#b3de69;"/>
   </g>
   <g id="patch_56">
    <path clip-path="url(#p9ded5c0493)" d="
M627.333 43.2635
L646.967 43.2635
L646.967 42.2536
L627.333 42.2536
z
" style="fill:#b3de69;"/>
   </g>
   <g id="patch_57">
    <path clip-path="url(#p9ded5c0493)" d="
M90 19.6837
L109.633 19.6837
L109.633 19.6837
L90 19.6837
z
" style="fill:#fa8174;"/>
   </g>
   <g id="patch_58">
    <path clip-path="url(#p9ded5c0493)" d="
M110.667 22.6789
L130.3 22.6789
L130.3 22.6789
L110.667 22.6789
z
" style="fill:#fa8174;"/>
   </g>
   <g id="patch_59">
    <path clip-path="url(#p9ded5c0493)" d="
M131.333 21.6592
L150.967 21.6592
L150.967 21.6592
L131.333 21.6592
z
" style="fill:#fa8174;"/>
   </g>
   <g id="patch_60">
    <path clip-path="url(#p9ded5c0493)" d="
M152 24.3418
L171.633 24.3418
L171.633 24.3418
L152 24.3418
z
" style="fill:#fa8174;"/>
   </g>
   <g id="patch_61">
    <path clip-path="url(#p9ded5c0493)" d="
M172.667 19.6056
L192.3 19.6056
L192.3 19.6056
L172.667 19.6056
z
" style="fill:#fa8174;"/>
   </g>
   <g id="patch_62">
    <path clip-path="url(#p9ded5c0493)" d="
M193.333 22.4278
L212.967 22.4278
L212.967 22.4278
L193.333 22.4278
z
" style="fill:#fa8174;"/>
   </g>
   <g id="patch_63">
    <path clip-path="url(#p9ded5c0493)" d="
M214 22.1935
L233.633 22.1935
L233.633 22.1935
L214 22.1935
z
" style="fill:#fa8174;"/>
   </g>
   <g id="patch_64">
    <path clip-path="url(#p9ded5c0493)" d="
M234.667 17.7853
L254.3 17.7853
L254.3 17.7853
L234.667 17.7853
z
" style="fill:#fa8174;"/>
   </g>
   <g id="patch_65">
    <path clip-path="url(#p9ded5c0493)" d="
M255.333 19.7662
L274.967 19.7662
L274.967 19.7662
L255.333 19.7662
z
" style="fill:#fa8174;"/>
   </g>
   <g id="patch_66">
    <path clip-path="url(#p9ded5c0493)" d="
M276 18.8522
L295.633 18.8522
L295.633 18.8522
L276 18.8522
z
" style="fill:#fa8174;"/>
   </g>
   <g id="patch_67">
    <path clip-path="url(#p9ded5c0493)" d="
M296.667 28.9062
L316.3 28.9062
L316.3 28.9062
L296.667 28.9062
z
" style="fill:#fa8174;"/>
   </g>
   <g id="patch_68">
    <path clip-path="url(#p9ded5c0493)" d="
M317.333 22.3162
L336.967 22.3162
L336.967 22.3162
L317.333 22.3162
z
" style="fill:#fa8174;"/>
   </g>
   <g id="patch_69">
    <path clip-path="url(#p9ded5c0493)" d="
M338 35.1474
L357.633 35.1474
L357.633 8.31611
L338 8.31611
z
" style="fill:#fa8174;"/>
   </g>
   <g id="patch_70">
    <path clip-path="url(#p9ded5c0493)" d="
M358.667 40.2727
L378.3 40.2727
L378.3 9.56592
L358.667 9.56592
z
" style="fill:#fa8174;"/>
   </g>
   <g id="patch_71">
    <path clip-path="url(#p9ded5c0493)" d="
M379.333 41.2135
L398.967 41.2135
L398.967 7.94779
L379.333 7.94779
z
" style="fill:#fa8174;"/>
   </g>
   <g id="patch_72">
    <path clip-path="url(#p9ded5c0493)" d="
M400 55.3945
L419.633 55.3945
L419.633 8.41086
L400 8.41086
z
" style="fill:#fa8174;"/>
   </g>
   <g id="patch_73">
    <path clip-path="url(#p9ded5c0493)" d="
M420.667 60.701
L440.3 60.701
L440.3 7.99794
L420.667 7.99794
z
" style="fill:#fa8174;"/>
   </g>
   <g id="patch_74">
    <path clip-path="url(#p9ded5c0493)" d="
M441.333 62.0068
L460.967 62.0068
L460.967 7.63524
L441.333 7.63524
z
" style="fill:#fa8174;"/>
   </g>
   <g id="patch_75">
    <path clip-path="url(#p9ded5c0493)" d="
M462 62.9833
L481.633 62.9833
L481.633 7.23906
L462 7.23906
z
" style="fill:#fa8174;"/>
   </g>
   <g id="patch_76">
    <path clip-path="url(#p9ded5c0493)" d="
M482.667 62.8159
L502.3 62.8159
L502.3 7.36182
L482.667 7.36182
z
" style="fill:#fa8174;"/>
   </g>
   <g id="patch_77">
    <path clip-path="url(#p9ded5c0493)" d="
M503.333 62.6875
L522.967 62.6875
L522.967 62.6875
L503.333 62.6875
z
" style="fill:#fa8174;"/>
   </g>
   <g id="patch_78">
    <path clip-path="url(#p9ded5c0493)" d="
M524 61.5157
L543.633 61.5157
L543.633 61.5157
L524 61.5157
z
" style="fill:#fa8174;"/>
   </g>
   <g id="patch_79">
    <path clip-path="url(#p9ded5c0493)" d="
M544.667 61.2646
L564.3 61.2646
L564.3 61.2646
L544.667 61.2646
z
" style="fill:#fa8174;"/>
   </g>
   <g id="patch_80">
    <path clip-path="url(#p9ded5c0493)" d="
M565.333 52.4761
L584.967 52.4761
L584.967 47.8001
L565.333 47.8001
z
" style="fill:#fa8174;"/>
   </g>
   <g id="patch_81">
    <path clip-path="url(#p9ded5c0493)" d="
M586 53.9716
L605.633 53.9716
L605.633 53.9716
L586 53.9716
z
" style="fill:#fa8174;"/>
   </g>
   <g id="patch_82">
    <path clip-path="url(#p9ded5c0493)" d="
M606.667 45.6703
L626.3 45.6703
L626.3 45.6703
L606.667 45.6703
z
" style="fill:#fa8174;"/>
   </g>
   <g id="patch_83">
    <path clip-path="url(#p9ded5c0493)" d="
M627.333 42.2536
L646.967 42.2536
L646.967 42.2536
L627.333 42.2536
z
" style="fill:#fa8174;"/>
   </g>
   <g id="patch_84">
    <path clip-path="url(#p9ded5c0493)" d="
M90 19.6837
L109.633 19.6837
L109.633 19.4605
L90 19.4605
z
" style="fill:#fdb462;"/>
   </g>
   <g id="patch_85">
    <path clip-path="url(#p9ded5c0493)" d="
M110.667 22.6789
L130.3 22.6789
L130.3 22.6008
L110.667 22.6008
z
" style="fill:#fdb462;"/>
   </g>
   <g id="patch_86">
    <path clip-path="url(#p9ded5c0493)" d="
M131.333 21.6592
L150.967 21.6592
L150.967 21.5811
L131.333 21.5811
z
" style="fill:#fdb462;"/>
   </g>
   <g id="patch_87">
    <path clip-path="url(#p9ded5c0493)" d="
M152 24.3418
L171.633 24.3418
L171.633 24.2246
L152 24.2246
z
" style="fill:#fdb462;"/>
   </g>
   <g id="patch_88">
    <path clip-path="url(#p9ded5c0493)" d="
M172.667 19.6056
L192.3 19.6056
L192.3 7.46229
L172.667 7.46229
z
" style="fill:#fdb462;"/>
   </g>
   <g id="patch_89">
    <path clip-path="url(#p9ded5c0493)" d="
M193.333 22.4278
L212.967 22.4278
L212.967 7.46784
L193.333 7.46784
z
" style="fill:#fdb462;"/>
   </g>
   <g id="patch_90">
    <path clip-path="url(#p9ded5c0493)" d="
M214 22.1935
L233.633 22.1935
L233.633 7.80822
L214 7.80822
z
" style="fill:#fdb462;"/>
   </g>
   <g id="patch_91">
    <path clip-path="url(#p9ded5c0493)" d="
M234.667 17.7853
L254.3 17.7853
L254.3 8.01468
L234.667 8.01468
z
" style="fill:#fdb462;"/>
   </g>
   <g id="patch_92">
    <path clip-path="url(#p9ded5c0493)" d="
M255.333 19.7662
L274.967 19.7662
L274.967 14.0522
L255.333 14.0522
z
" style="fill:#fdb462;"/>
   </g>
   <g id="patch_93">
    <path clip-path="url(#p9ded5c0493)" d="
M276 18.8522
L295.633 18.8522
L295.633 16.6869
L276 16.6869
z
" style="fill:#fdb462;"/>
   </g>
   <g id="patch_94">
    <path clip-path="url(#p9ded5c0493)" d="
M296.667 28.9062
L316.3 28.9062
L316.3 26.6128
L296.667 26.6128
z
" style="fill:#fdb462;"/>
   </g>
   <g id="patch_95">
    <path clip-path="url(#p9ded5c0493)" d="
M317.333 22.3162
L336.967 22.3162
L336.967 20.2405
L317.333 20.2405
z
" style="fill:#fdb462;"/>
   </g>
   <g id="patch_96">
    <path clip-path="url(#p9ded5c0493)" d="
M338 8.31611
L357.633 8.31611
L357.633 7.68551
L338 7.68551
z
" style="fill:#fdb462;"/>
   </g>
   <g id="patch_97">
    <path clip-path="url(#p9ded5c0493)" d="
M358.667 9.56592
L378.3 9.56592
L378.3 7.64082
L358.667 7.64082
z
" style="fill:#fdb462;"/>
   </g>
   <g id="patch_98">
    <path clip-path="url(#p9ded5c0493)" d="
M379.333 7.94779
L398.967 7.94779
L398.967 7.57948
L379.333 7.57948
z
" style="fill:#fdb462;"/>
   </g>
   <g id="patch_99">
    <path clip-path="url(#p9ded5c0493)" d="
M400 8.41086
L419.633 8.41086
L419.633 8.22114
L400 8.22114
z
" style="fill:#fdb462;"/>
   </g>
   <g id="patch_100">
    <path clip-path="url(#p9ded5c0493)" d="
M420.667 7.99794
L440.3 7.99794
L440.3 7.758
L420.667 7.758
z
" style="fill:#fdb462;"/>
   </g>
   <g id="patch_101">
    <path clip-path="url(#p9ded5c0493)" d="
M441.333 7.63524
L460.967 7.63524
L460.967 7.52922
L441.333 7.52922
z
" style="fill:#fdb462;"/>
   </g>
   <g id="patch_102">
    <path clip-path="url(#p9ded5c0493)" d="
M462 7.23906
L481.633 7.23906
L481.633 7.23348
L462 7.23348
z
" style="fill:#fdb462;"/>
   </g>
   <g id="patch_103">
    <path clip-path="url(#p9ded5c0493)" d="
M482.667 7.36182
L502.3 7.36182
L502.3 7.32276
L482.667 7.32276
z
" style="fill:#fdb462;"/>
   </g>
   <g id="patch_104">
    <path clip-path="url(#p9ded5c0493)" d="
M503.333 62.6875
L522.967 62.6875
L522.967 62.6596
L503.333 62.6596
z
" style="fill:#fdb462;"/>
   </g>
   <g id="patch_105">
    <path clip-path="url(#p9ded5c0493)" d="
M524 61.5157
L543.633 61.5157
L543.633 61.3818
L524 61.3818
z
" style="fill:#fdb462;"/>
   </g>
   <g id="patch_106">
    <path clip-path="url(#p9ded5c0493)" d="
M544.667 61.2646
L564.3 61.2646
L564.3 61.0916
L544.667 61.0916
z
" style="fill:#fdb462;"/>
   </g>
   <g id="patch_107">
    <path clip-path="url(#p9ded5c0493)" d="
M565.333 47.8001
L584.967 47.8001
L584.967 47.6494
L565.333 47.6494
z
" style="fill:#fdb462;"/>
   </g>
   <g id="patch_108">
    <path clip-path="url(#p9ded5c0493)" d="
M586 53.9716
L605.633 53.9716
L605.633 53.9381
L586 53.9381
z
" style="fill:#fdb462;"/>
   </g>
   <g id="patch_109">
    <path clip-path="url(#p9ded5c0493)" d="
M606.667 45.6703
L626.3 45.6703
L626.3 45.6647
L606.667 45.6647
z
" style="fill:#fdb462;"/>
   </g>
   <g id="patch_110">
    <path clip-path="url(#p9ded5c0493)" d="
M627.333 42.2536
L646.967 42.2536
L646.967 42.0192
L627.333 42.0192
z
" style="fill:#fdb462;"/>
   </g>
   <g id="patch_111">
    <path clip-path="url(#p9ded5c0493)" d="
M90 19.4605
L109.633 19.4605
L109.633 8.03708
L90 8.03708
z
" style="fill:#bfbbd9;"/>
   </g>
   <g id="patch_112">
    <path clip-path="url(#p9ded5c0493)" d="
M110.667 22.6008
L130.3 22.6008
L130.3 7.49016
L110.667 7.49016
z
" style="fill:#bfbbd9;"/>
   </g>
   <g id="patch_113">
    <path clip-path="url(#p9ded5c0493)" d="
M131.333 21.5811
L150.967 21.5811
L150.967 7.54041
L131.333 7.54041
z
" style="fill:#bfbbd9;"/>
   </g>
   <g id="patch_114">
    <path clip-path="url(#p9ded5c0493)" d="
M152 24.2246
L171.633 24.2246
L171.633 7.32834
L152 7.32834
z
" style="fill:#bfbbd9;"/>
   </g>
   <g id="patch_115">
    <path clip-path="url(#p9ded5c0493)" d="
M172.667 7.46229
L192.3 7.46229
L192.3 7.45113
L172.667 7.45113
z
" style="fill:#bfbbd9;"/>
   </g>
   <g id="patch_116">
    <path clip-path="url(#p9ded5c0493)" d="
M193.333 7.46784
L212.967 7.46784
L212.967 7.46784
L193.333 7.46784
z
" style="fill:#bfbbd9;"/>
   </g>
   <g id="patch_117">
    <path clip-path="url(#p9ded5c0493)" d="
M214 7.80822
L233.633 7.80822
L233.633 7.78032
L214 7.78032
z
" style="fill:#bfbbd9;"/>
   </g>
   <g id="patch_118">
    <path clip-path="url(#p9ded5c0493)" d="
M234.667 8.01468
L254.3 8.01468
L254.3 7.52364
L234.667 7.52364
z
" style="fill:#bfbbd9;"/>
   </g>
   <g id="patch_119">
    <path clip-path="url(#p9ded5c0493)" d="
M255.333 14.0522
L274.967 14.0522
L274.967 13.8904
L255.333 13.8904
z
" style="fill:#bfbbd9;"/>
   </g>
   <g id="patch_120">
    <path clip-path="url(#p9ded5c0493)" d="
M276 16.6869
L295.633 16.6869
L295.633 16.4581
L276 16.4581
z
" style="fill:#bfbbd9;"/>
   </g>
   <g id="patch_121">
    <path clip-path="url(#p9ded5c0493)" d="
M296.667 26.6128
L316.3 26.6128
L316.3 26.6017
L296.667 26.6017
z
" style="fill:#bfbbd9;"/>
   </g>
   <g id="patch_122">
    <path clip-path="url(#p9ded5c0493)" d="
M317.333 20.2405
L336.967 20.2405
L336.967 20.0005
L317.333 20.0005
z
" style="fill:#bfbbd9;"/>
   </g>
   <g id="patch_123">
    <path clip-path="url(#p9ded5c0493)" d="
M338 7.68551
L357.633 7.68551
L357.633 7.56274
L338 7.56274
z
" style="fill:#bfbbd9;"/>
   </g>
   <g id="patch_124">
    <path clip-path="url(#p9ded5c0493)" d="
M358.667 7.64082
L378.3 7.64082
L378.3 7.50132
L358.667 7.50132
z
" style="fill:#bfbbd9;"/>
   </g>
   <g id="patch_125">
    <path clip-path="url(#p9ded5c0493)" d="
M379.333 7.57948
L398.967 7.57948
L398.967 7.45113
L379.333 7.45113
z
" style="fill:#bfbbd9;"/>
   </g>
   <g id="patch_126">
    <path clip-path="url(#p9ded5c0493)" d="
M400 8.22114
L419.633 8.22114
L419.633 7.9812
L400 7.9812
z
" style="fill:#bfbbd9;"/>
   </g>
   <g id="patch_127">
    <path clip-path="url(#p9ded5c0493)" d="
M420.667 7.758
L440.3 7.758
L440.3 7.57944
L420.667 7.57944
z
" style="fill:#bfbbd9;"/>
   </g>
   <g id="patch_128">
    <path clip-path="url(#p9ded5c0493)" d="
M441.333 7.52922
L460.967 7.52922
L460.967 7.4511
L441.333 7.4511
z
" style="fill:#bfbbd9;"/>
   </g>
   <g id="patch_129">
    <path clip-path="url(#p9ded5c0493)" d="
M462 7.23348
L481.633 7.23348
L481.633 7.2279
L462 7.2279
z
" style="fill:#bfbbd9;"/>
   </g>
   <g id="patch_130">
    <path clip-path="url(#p9ded5c0493)" d="
M482.667 7.32276
L502.3 7.32276
L502.3 7.29486
L482.667 7.29486
z
" style="fill:#bfbbd9;"/>
   </g>
   <g id="patch_131">
    <path clip-path="url(#p9ded5c0493)" d="
M503.333 62.6596
L522.967 62.6596
L522.967 62.6485
L503.333 62.6485
z
" style="fill:#bfbbd9;"/>
   </g>
   <g id="patch_132">
    <path clip-path="url(#p9ded5c0493)" d="
M524 61.3818
L543.633 61.3818
L543.633 61.326
L524 61.326
z
" style="fill:#bfbbd9;"/>
   </g>
   <g id="patch_133">
    <path clip-path="url(#p9ded5c0493)" d="
M544.667 61.0916
L564.3 61.0916
L564.3 61.0303
L544.667 61.0303
z
" style="fill:#bfbbd9;"/>
   </g>
   <g id="patch_134">
    <path clip-path="url(#p9ded5c0493)" d="
M565.333 47.6494
L584.967 47.6494
L584.967 47.5378
L565.333 47.5378
z
" style="fill:#bfbbd9;"/>
   </g>
   <g id="patch_135">
    <path clip-path="url(#p9ded5c0493)" d="
M586 53.9381
L605.633 53.9381
L605.633 53.7874
L586 53.7874
z
" style="fill:#bfbbd9;"/>
   </g>
   <g id="patch_136">
    <path clip-path="url(#p9ded5c0493)" d="
M606.667 45.6647
L626.3 45.6647
L626.3 45.3187
L606.667 45.3187
z
" style="fill:#bfbbd9;"/>
   </g>
   <g id="patch_137">
    <path clip-path="url(#p9ded5c0493)" d="
M627.333 42.0192
L646.967 42.0192
L646.967 41.7737
L627.333 41.7737
z
" style="fill:#bfbbd9;"/>
   </g>
   <g id="patch_138">
    <path clip-path="url(#p9ded5c0493)" d="
M90 8.03708
L109.633 8.03708
L109.633 7.51809
L90 7.51809
z
" style="fill:#fbcde4;"/>
   </g>
   <g id="patch_139">
    <path clip-path="url(#p9ded5c0493)" d="
M110.667 7.49016
L130.3 7.49016
L130.3 7.32834
L110.667 7.32834
z
" style="fill:#fbcde4;"/>
   </g>
   <g id="patch_140">
    <path clip-path="url(#p9ded5c0493)" d="
M131.333 7.54041
L150.967 7.54041
L150.967 7.26697
L131.333 7.26697
z
" style="fill:#fbcde4;"/>
   </g>
   <g id="patch_141">
    <path clip-path="url(#p9ded5c0493)" d="
M152 7.32834
L171.633 7.32834
L171.633 7.27254
L152 7.27254
z
" style="fill:#fbcde4;"/>
   </g>
   <g id="patch_142">
    <path clip-path="url(#p9ded5c0493)" d="
M172.667 7.45113
L192.3 7.45113
L192.3 7.373
L172.667 7.373
z
" style="fill:#fbcde4;"/>
   </g>
   <g id="patch_143">
    <path clip-path="url(#p9ded5c0493)" d="
M193.333 7.46784
L212.967 7.46784
L212.967 7.32834
L193.333 7.32834
z
" style="fill:#fbcde4;"/>
   </g>
   <g id="patch_144">
    <path clip-path="url(#p9ded5c0493)" d="
M214 7.78032
L233.633 7.78032
L233.633 7.23348
L214 7.23348
z
" style="fill:#fbcde4;"/>
   </g>
   <g id="patch_145">
    <path clip-path="url(#p9ded5c0493)" d="
M234.667 7.52364
L254.3 7.52364
L254.3 7.34508
L234.667 7.34508
z
" style="fill:#fbcde4;"/>
   </g>
   <g id="patch_146">
    <path clip-path="url(#p9ded5c0493)" d="
M255.333 13.8904
L274.967 13.8904
L274.967 7.32276
L255.333 7.32276
z
" style="fill:#fbcde4;"/>
   </g>
   <g id="patch_147">
    <path clip-path="url(#p9ded5c0493)" d="
M276 16.4581
L295.633 16.4581
L295.633 7.25023
L276 7.25023
z
" style="fill:#fbcde4;"/>
   </g>
   <g id="patch_148">
    <path clip-path="url(#p9ded5c0493)" d="
M296.667 26.6017
L316.3 26.6017
L316.3 7.24464
L296.667 7.24464
z
" style="fill:#fbcde4;"/>
   </g>
   <g id="patch_149">
    <path clip-path="url(#p9ded5c0493)" d="
M317.333 20.0005
L336.967 20.0005
L336.967 7.2837
L317.333 7.2837
z
" style="fill:#fbcde4;"/>
   </g>
   <g id="patch_150">
    <path clip-path="url(#p9ded5c0493)" d="
M338 7.56274
L357.633 7.56274
L357.633 7.47345
L338 7.47345
z
" style="fill:#fbcde4;"/>
   </g>
   <g id="patch_151">
    <path clip-path="url(#p9ded5c0493)" d="
M358.667 7.50132
L378.3 7.50132
L378.3 7.38972
L358.667 7.38972
z
" style="fill:#fbcde4;"/>
   </g>
   <g id="patch_152">
    <path clip-path="url(#p9ded5c0493)" d="
M379.333 7.45113
L398.967 7.45113
L398.967 7.29487
L379.333 7.29487
z
" style="fill:#fbcde4;"/>
   </g>
   <g id="patch_153">
    <path clip-path="url(#p9ded5c0493)" d="
M400 7.9812
L419.633 7.9812
L419.633 7.41204
L400 7.41204
z
" style="fill:#fbcde4;"/>
   </g>
   <g id="patch_154">
    <path clip-path="url(#p9ded5c0493)" d="
M420.667 7.57944
L440.3 7.57944
L440.3 7.34508
L420.667 7.34508
z
" style="fill:#fbcde4;"/>
   </g>
   <g id="patch_155">
    <path clip-path="url(#p9ded5c0493)" d="
M441.333 7.4511
L460.967 7.4511
L460.967 7.28928
L441.333 7.28928
z
" style="fill:#fbcde4;"/>
   </g>
   <g id="patch_156">
    <path clip-path="url(#p9ded5c0493)" d="
M462 7.2279
L481.633 7.2279
L481.633 7.20558
L462 7.20558
z
" style="fill:#fbcde4;"/>
   </g>
   <g id="patch_157">
    <path clip-path="url(#p9ded5c0493)" d="
M482.667 7.29486
L502.3 7.29486
L502.3 7.2279
L482.667 7.2279
z
" style="fill:#fbcde4;"/>
   </g>
   <g id="patch_158">
    <path clip-path="url(#p9ded5c0493)" d="
M503.333 62.6485
L522.967 62.6485
L522.967 62.6429
L503.333 62.6429
z
" style="fill:#fbcde4;"/>
   </g>
   <g id="patch_159">
    <path clip-path="url(#p9ded5c0493)" d="
M524 61.326
L543.633 61.326
L543.633 61.1977
L524 61.1977
z
" style="fill:#fbcde4;"/>
   </g>
   <g id="patch_160">
    <path clip-path="url(#p9ded5c0493)" d="
M544.667 61.0303
L564.3 61.0303
L564.3 60.8517
L544.667 60.8517
z
" style="fill:#fbcde4;"/>
   </g>
   <g id="patch_161">
    <path clip-path="url(#p9ded5c0493)" d="
M565.333 47.5378
L584.967 47.5378
L584.967 47.3035
L565.333 47.3035
z
" style="fill:#fbcde4;"/>
   </g>
   <g id="patch_162">
    <path clip-path="url(#p9ded5c0493)" d="
M586 53.7874
L605.633 53.7874
L605.633 53.341
L586 53.341
z
" style="fill:#fbcde4;"/>
   </g>
   <g id="patch_163">
    <path clip-path="url(#p9ded5c0493)" d="
M606.667 45.3187
L626.3 45.3187
L626.3 45.263
L606.667 45.263
z
" style="fill:#fbcde4;"/>
   </g>
   <g id="patch_164">
    <path clip-path="url(#p9ded5c0493)" d="
M627.333 41.7737
L646.967 41.7737
L646.967 41.7681
L627.333 41.7681
z
" style="fill:#fbcde4;"/>
   </g>
   <g id="patch_165">
    <path clip-path="url(#p9ded5c0493)" d="
M90 7.51809
L109.633 7.51809
L109.633 7.2
L90 7.2
z
" style="fill:#81b1d2;"/>
   </g>
   <g id="patch_166">
    <path clip-path="url(#p9ded5c0493)" d="
M110.667 7.32834
L130.3 7.32834
L130.3 7.2
L110.667 7.2
z
" style="fill:#81b1d2;"/>
   </g>
   <g id="patch_167">
    <path clip-path="url(#p9ded5c0493)" d="
M131.333 7.26697
L150.967 7.26697
L150.967 7.2
L131.333 7.2
z
" style="fill:#81b1d2;"/>
   </g>
   <g id="patch_168">
    <path clip-path="url(#p9ded5c0493)" d="
M152 7.27254
L171.633 7.27254
L171.633 7.2
L152 7.2
z
" style="fill:#81b1d2;"/>
   </g>
   <g id="patch_169">
    <path clip-path="url(#p9ded5c0493)" d="
M172.667 7.373
L192.3 7.373
L192.3 7.2
L172.667 7.2
z
" style="fill:#81b1d2;"/>
   </g>
   <g id="patch_170">
    <path clip-path="url(#p9ded5c0493)" d="
M193.333 7.32834
L212.967 7.32834
L212.967 7.2
L193.333 7.2
z
" style="fill:#81b1d2;"/>
   </g>
   <g id="patch_171">
    <path clip-path="url(#p9ded5c0493)" d="
M214 7.23348
L233.633 7.23348
L233.633 7.2
L214 7.2
z
" style="fill:#81b1d2;"/>
   </g>
   <g id="patch_172">
    <path clip-path="url(#p9ded5c0493)" d="
M234.667 7.34508
L254.3 7.34508
L254.3 7.2
L234.667 7.2
z
" style="fill:#81b1d2;"/>
   </g>
   <g id="patch_173">
    <path clip-path="url(#p9ded5c0493)" d="
M255.333 7.32276
L274.967 7.32276
L274.967 7.2
L255.333 7.2
z
" style="fill:#81b1d2;"/>
   </g>
   <g id="patch_174">
    <path clip-path="url(#p9ded5c0493)" d="
M276 7.25023
L295.633 7.25023
L295.633 7.2
L276 7.2
z
" style="fill:#81b1d2;"/>
   </g>
   <g id="patch_175">
    <path clip-path="url(#p9ded5c0493)" d="
M296.667 7.24464
L316.3 7.24464
L316.3 7.2
L296.667 7.2
z
" style="fill:#81b1d2;"/>
   </g>
   <g id="patch_176">
    <path clip-path="url(#p9ded5c0493)" d="
M317.333 7.2837
L336.967 7.2837
L336.967 7.2
L317.333 7.2
z
" style="fill:#81b1d2;"/>
   </g>
   <g id="patch_177">
    <path clip-path="url(#p9ded5c0493)" d="
M338 7.47345
L357.633 7.47345
L357.633 7.2
L338 7.2
z
" style="fill:#81b1d2;"/>
   </g>
   <g id="patch_178">
    <path clip-path="url(#p9ded5c0493)" d="
M358.667 7.38972
L378.3 7.38972
L378.3 7.2
L358.667 7.2
z
" style="fill:#81b1d2;"/>
   </g>
   <g id="patch_179">
    <path clip-path="url(#p9ded5c0493)" d="
M379.333 7.29487
L398.967 7.29487
L398.967 7.2
L379.333 7.2
z
" style="fill:#81b1d2;"/>
   </g>
   <g id="patch_180">
    <path clip-path="url(#p9ded5c0493)" d="
M400 7.41204
L419.633 7.41204
L419.633 7.2
L400 7.2
z
" style="fill:#81b1d2;"/>
   </g>
   <g id="patch_181">
    <path clip-path="url(#p9ded5c0493)" d="
M420.667 7.34508
L440.3 7.34508
L440.3 7.2
L420.667 7.2
z
" style="fill:#81b1d2;"/>
   </g>
   <g id="patch_182">
    <path clip-path="url(#p9ded5c0493)" d="
M441.333 7.28928
L460.967 7.28928
L460.967 7.2
L441.333 7.2
z
" style="fill:#81b1d2;"/>
   </g>
   <g id="patch_183">
    <path clip-path="url(#p9ded5c0493)" d="
M462 7.20558
L481.633 7.20558
L481.633 7.2
L462 7.2
z
" style="fill:#81b1d2;"/>
   </g>
   <g id="patch_184">
    <path clip-path="url(#p9ded5c0493)" d="
M482.667 7.2279
L502.3 7.2279
L502.3 7.2
L482.667 7.2
z
" style="fill:#81b1d2;"/>
   </g>
   <g id="patch_185">
    <path clip-path="url(#p9ded5c0493)" d="
M503.333 62.6429
L522.967 62.6429
L522.967 62.6261
L503.333 62.6261
z
" style="fill:#81b1d2;"/>
   </g>
   <g id="patch_186">
    <path clip-path="url(#p9ded5c0493)" d="
M524 61.1977
L543.633 61.1977
L543.633 61.0916
L524 61.0916
z
" style="fill:#81b1d2;"/>
   </g>
   <g id="patch_187">
    <path clip-path="url(#p9ded5c0493)" d="
M544.667 60.8517
L564.3 60.8517
L564.3 60.7736
L544.667 60.7736
z
" style="fill:#81b1d2;"/>
   </g>
   <g id="patch_188">
    <path clip-path="url(#p9ded5c0493)" d="
M565.333 47.3035
L584.967 47.3035
L584.967 28.4598
L565.333 28.4598
z
" style="fill:#81b1d2;"/>
   </g>
   <g id="patch_189">
    <path clip-path="url(#p9ded5c0493)" d="
M586 53.341
L605.633 53.341
L605.633 34.4304
L586 34.4304
z
" style="fill:#81b1d2;"/>
   </g>
   <g id="patch_190">
    <path clip-path="url(#p9ded5c0493)" d="
M606.667 45.263
L626.3 45.263
L626.3 24.301
L606.667 24.301
z
" style="fill:#81b1d2;"/>
   </g>
   <g id="patch_191">
    <path clip-path="url(#p9ded5c0493)" d="
M627.333 41.7681
L646.967 41.7681
L646.967 23.1197
L627.333 23.1197
z
" style="fill:#81b1d2;"/>
   </g>
   <g id="patch_192">
    <path clip-path="url(#p9ded5c0493)" d="
M90 7.2
L109.633 7.2
L109.633 7.2
L90 7.2
z
" style="fill:#feffb3;"/>
   </g>
   <g id="patch_193">
    <path clip-path="url(#p9ded5c0493)" d="
M110.667 7.2
L130.3 7.2
L130.3 7.2
L110.667 7.2
z
" style="fill:#feffb3;"/>
   </g>
   <g id="patch_194">
    <path clip-path="url(#p9ded5c0493)" d="
M131.333 7.2
L150.967 7.2
L150.967 7.2
L131.333 7.2
z
" style="fill:#feffb3;"/>
   </g>
   <g id="patch_195">
    <path clip-path="url(#p9ded5c0493)" d="
M152 7.2
L171.633 7.2
L171.633 7.2
L152 7.2
z
" style="fill:#feffb3;"/>
   </g>
   <g id="patch_196">
    <path clip-path="url(#p9ded5c0493)" d="
M172.667 7.2
L192.3 7.2
L192.3 7.2
L172.667 7.2
z
" style="fill:#feffb3;"/>
   </g>
   <g id="patch_197">
    <path clip-path="url(#p9ded5c0493)" d="
M193.333 7.2
L212.967 7.2
L212.967 7.2
L193.333 7.2
z
" style="fill:#feffb3;"/>
   </g>
   <g id="patch_198">
    <path clip-path="url(#p9ded5c0493)" d="
M214 7.2
L233.633 7.2
L233.633 7.2
L214 7.2
z
" style="fill:#feffb3;"/>
   </g>
   <g id="patch_199">
    <path clip-path="url(#p9ded5c0493)" d="
M234.667 7.2
L254.3 7.2
L254.3 7.2
L234.667 7.2
z
" style="fill:#feffb3;"/>
   </g>
   <g id="patch_200">
    <path clip-path="url(#p9ded5c0493)" d="
M255.333 7.2
L274.967 7.2
L274.967 7.2
L255.333 7.2
z
" style="fill:#feffb3;"/>
   </g>
   <g id="patch_201">
    <path clip-path="url(#p9ded5c0493)" d="
M276 7.2
L295.633 7.2
L295.633 7.2
L276 7.2
z
" style="fill:#feffb3;"/>
   </g>
   <g id="patch_202">
    <path clip-path="url(#p9ded5c0493)" d="
M296.667 7.2
L316.3 7.2
L316.3 7.2
L296.667 7.2
z
" style="fill:#feffb3;"/>
   </g>
   <g id="patch_203">
    <path clip-path="url(#p9ded5c0493)" d="
M317.333 7.2
L336.967 7.2
L336.967 7.2
L317.333 7.2
z
" style="fill:#feffb3;"/>
   </g>
   <g id="patch_204">
    <path clip-path="url(#p9ded5c0493)" d="
M338 7.2
L357.633 7.2
L357.633 7.2
L338 7.2
z
" style="fill:#feffb3;"/>
   </g>
   <g id="patch_205">
    <path clip-path="url(#p9ded5c0493)" d="
M358.667 7.2
L378.3 7.2
L378.3 7.2
L358.667 7.2
z
" style="fill:#feffb3;"/>
   </g>
   <g id="patch_206">
    <path clip-path="url(#p9ded5c0493)" d="
M379.333 7.2
L398.967 7.2
L398.967 7.2
L379.333 7.2
z
" style="fill:#feffb3;"/>
   </g>
   <g id="patch_207">
    <path clip-path="url(#p9ded5c0493)" d="
M400 7.2
L419.633 7.2
L419.633 7.2
L400 7.2
z
" style="fill:#feffb3;"/>
   </g>
   <g id="patch_208">
    <path clip-path="url(#p9ded5c0493)" d="
M420.667 7.2
L440.3 7.2
L440.3 7.2
L420.667 7.2
z
" style="fill:#feffb3;"/>
   </g>
   <g id="patch_209">
    <path clip-path="url(#p9ded5c0493)" d="
M441.333 7.2
L460.967 7.2
L460.967 7.2
L441.333 7.2
z
" style="fill:#feffb3;"/>
   </g>
   <g id="patch_210">
    <path clip-path="url(#p9ded5c0493)" d="
M462 7.2
L481.633 7.2
L481.633 7.2
L462 7.2
z
" style="fill:#feffb3;"/>
   </g>
   <g id="patch_211">
    <path clip-path="url(#p9ded5c0493)" d="
M482.667 7.2
L502.3 7.2
L502.3 7.2
L482.667 7.2
z
" style="fill:#feffb3;"/>
   </g>
   <g id="patch_212">
    <path clip-path="url(#p9ded5c0493)" d="
M503.333 62.6261
L522.967 62.6261
L522.967 7.2
L503.333 7.2
z
" style="fill:#feffb3;"/>
   </g>
   <g id="patch_213">
    <path clip-path="url(#p9ded5c0493)" d="
M524 61.0916
L543.633 61.0916
L543.633 7.2
L524 7.2
z
" style="fill:#feffb3;"/>
   </g>
   <g id="patch_214">
    <path clip-path="url(#p9ded5c0493)" d="
M544.667 60.7736
L564.3 60.7736
L564.3 7.2
L544.667 7.2
z
" style="fill:#feffb3;"/>
   </g>
   <g id="patch_215">
    <path clip-path="url(#p9ded5c0493)" d="
M565.333 28.4598
L584.967 28.4598
L584.967 7.2
L565.333 7.2
z
" style="fill:#feffb3;"/>
   </g>
   <g id="patch_216">
    <path clip-path="url(#p9ded5c0493)" d="
M586 34.4304
L605.633 34.4304
L605.633 7.2
L586 7.2
z
" style="fill:#feffb3;"/>
   </g>
   <g id="patch_217">
    <path clip-path="url(#p9ded5c0493)" d="
M606.667 24.301
L626.3 24.301
L626.3 7.2
L606.667 7.2
z
" style="fill:#feffb3;"/>
   </g>
   <g id="patch_218">
    <path clip-path="url(#p9ded5c0493)" d="
M627.333 23.1197
L646.967 23.1197
L646.967 7.2
L627.333 7.2
z
" style="fill:#feffb3;"/>
   </g>
   <g id="line2d_1">
    <path clip-path="url(#p9ded5c0493)" d="
M90 63
L90 7.2" style="fill:none;stroke:#262626;stroke-linecap:round;stroke-width:1.5;"/>
   </g>
   <g id="line2d_2">
    <path clip-path="url(#p9ded5c0493)" d="
M171.633 63
L171.633 7.2" style="fill:none;stroke:#262626;stroke-linecap:round;stroke-width:1.5;"/>
   </g>
   <g id="line2d_3">
    <path clip-path="url(#p9ded5c0493)" d="
M254.3 63
L254.3 7.2" style="fill:none;stroke:#262626;stroke-linecap:round;stroke-width:1.5;"/>
   </g>
   <g id="line2d_4">
    <path clip-path="url(#p9ded5c0493)" d="
M336.967 63
L336.967 7.2" style="fill:none;stroke:#262626;stroke-linecap:round;stroke-width:1.5;"/>
   </g>
   <g id="line2d_5">
    <path clip-path="url(#p9ded5c0493)" d="
M398.967 63
L398.967 7.2" style="fill:none;stroke:#262626;stroke-linecap:round;stroke-width:1.5;"/>
   </g>
   <g id="line2d_6">
    <path clip-path="url(#p9ded5c0493)" d="
M502.3 63
L502.3 7.2" style="fill:none;stroke:#262626;stroke-linecap:round;stroke-width:1.5;"/>
   </g>
   <g id="line2d_7">
    <path clip-path="url(#p9ded5c0493)" d="
M564.3 63
L564.3 7.2" style="fill:none;stroke:#262626;stroke-linecap:round;stroke-width:1.5;"/>
   </g>
   <g id="line2d_8">
    <path clip-path="url(#p9ded5c0493)" d="
M646.967 63
L646.967 7.2" style="fill:none;stroke:#262626;stroke-linecap:round;stroke-width:1.5;"/>
   </g>
   <g id="line2d_9">
    <path clip-path="url(#p9ded5c0493)" d="
M90 62.9721
L648 62.9721" style="fill:none;stroke:#262626;stroke-linecap:round;stroke-width:1.3;"/>
   </g>
   <g id="line2d_10">
    <path clip-path="url(#p9ded5c0493)" d="
M90 7.2
L648 7.2" style="fill:none;stroke:#262626;stroke-linecap:round;stroke-width:1.3;"/>
   </g>
   <g id="patch_219">
    <path d="
M90 7.2
L648 7.2" style="fill:none;"/>
   </g>
   <g id="patch_220">
    <path d="
M648 63
L648 7.2" style="fill:none;"/>
   </g>
   <g id="patch_221">
    <path d="
M90 63
L648 63" style="fill:none;"/>
   </g>
   <g id="patch_222">
    <path d="
M90 63
L90 7.2" style="fill:none;"/>
   </g>
  </g>
 </g>
 <defs>
  <clipPath id="p9ded5c0493">
   <rect height="55.8" width="558.0" x="90.0" y="7.2"/>
  </clipPath>
 </defs>
</svg>
