<?xml version="1.0" encoding="utf-8" standalone="no"?>
<!DOCTYPE svg PUBLIC "-//W3C//DTD SVG 1.1//EN"
  "http://www.w3.org/Graphics/SVG/1.1/DTD/svg11.dtd">
<!-- Created with matplotlib (http://matplotlib.org/) -->
<svg height="72pt" version="1.1" viewBox="0 0 720 72" width="720pt" xmlns="http://www.w3.org/2000/svg" xmlns:xlink="http://www.w3.org/1999/xlink">
 <defs>
  <style type="text/css">
*{stroke-linecap:butt;stroke-linejoin:round;}
  </style>
 </defs>
 <g id="figure_1">
  <g id="patch_1">
   <path d="
M0 72
L720 72
L720 0
L0 0
z
" style="fill:#ffffff;"/>
  </g>
  <g id="axes_1">
   <g id="patch_2">
    <path d="
M90 63
L648 63
L648 7.2
L90 7.2
z
" style="fill:#eaeaf2;"/>
   </g>
   <g id="matplotlib.axis_1"/>
   <g id="matplotlib.axis_2"/>
   <g id="patch_3">
    <path clip-path="url(#p9ded5c0493)" d="
M90 63
L109.633 63
L109.633 21.8977
L90 21.8977
z
" style="fill:#8dd3c7;"/>
   </g>
   <g id="patch_4">
    <path clip-path="url(#p9ded5c0493)" d="
M110.667 63
L130.3 63
L130.3 21.92
L110.667 21.92
z
" style="fill:#8dd3c7;"/>
   </g>
   <g id="patch_5">
    <path clip-path="url(#p9ded5c0493)" d="
M131.333 63
L150.967 63
L150.967 21.6076
L131.333 21.6076
z
" style="fill:#8dd3c7;"/>
   </g>
   <g id="patch_6">
    <path clip-path="url(#p9ded5c0493)" d="
M152 63
L171.633 63
L171.633 23.3485
L152 23.3485
z
" style="fill:#8dd3c7;"/>
   </g>
   <g id="patch_7">
    <path clip-path="url(#p9ded5c0493)" d="
M172.667 63
L192.3 63
L192.3 19.3321
L172.667 19.3321
z
" style="fill:#8dd3c7;"/>
   </g>
   <g id="patch_8">
    <path clip-path="url(#p9ded5c0493)" d="
M193.333 63
L212.967 63
L212.967 21.9773
L193.333 21.9773
z
" style="fill:#8dd3c7;"/>
   </g>
   <g id="patch_9">
    <path clip-path="url(#p9ded5c0493)" d="
M214 63
L233.633 63
L233.633 22.0581
L214 22.0581
z
" style="fill:#8dd3c7;"/>
   </g>
   <g id="patch_10">
    <path clip-path="url(#p9ded5c0493)" d="
M234.667 63
L254.3 63
L254.3 20.4692
L234.667 20.4692
z
" style="fill:#8dd3c7;"/>
   </g>
   <g id="patch_11">
    <path clip-path="url(#p9ded5c0493)" d="
M255.333 63
L274.967 63
L274.967 22.6622
L255.333 22.6622
z
" style="fill:#8dd3c7;"/>
   </g>
   <g id="patch_12">
    <path clip-path="url(#p9ded5c0493)" d="
M276 63
L295.633 63
L295.633 25.3201
L276 25.3201
z
" style="fill:#8dd3c7;"/>
   </g>
   <g id="patch_13">
    <path clip-path="url(#p9ded5c0493)" d="
M296.667 63
L316.3 63
L316.3 29.2131
L296.667 29.2131
z
" style="fill:#8dd3c7;"/>
   </g>
   <g id="patch_14">
    <path clip-path="url(#p9ded5c0493)" d="
M317.333 63
L336.967 63
L336.967 24.2525
L317.333 24.2525
z
" style="fill:#8dd3c7;"/>
   </g>
   <g id="patch_15">
    <path clip-path="url(#p9ded5c0493)" d="
M338 63
L357.633 63
L357.633 40.6633
L338 40.6633
z
" style="fill:#8dd3c7;"/>
   </g>
   <g id="patch_16">
    <path clip-path="url(#p9ded5c0493)" d="
M358.667 63
L378.3 63
L378.3 44.7534
L358.667 44.7534
z
" style="fill:#8dd3c7;"/>
   </g>
   <g id="patch_17">
    <path clip-path="url(#p9ded5c0493)" d="
M379.333 63
L398.967 63
L398.967 45.6891
L379.333 45.6891
z
" style="fill:#8dd3c7;"/>
   </g>
   <g id="patch_18">
    <path clip-path="url(#p9ded5c0493)" d="
M400 63
L419.633 63
L419.633 59.6743
L400 59.6743
z
" style="fill:#8dd3c7;"/>
   </g>
   <g id="patch_19">
    <path clip-path="url(#p9ded5c0493)" d="
M420.667 63
L440.3 63
L440.3 62.3862
L420.667 62.3862
z
" style="fill:#8dd3c7;"/>
   </g>
   <g id="patch_20">
    <path clip-path="url(#p9ded5c0493)" d="
M441.333 63
L460.967 63
L460.967 62.9498
L441.333 62.9498
z
" style="fill:#8dd3c7;"/>
   </g>
   <g id="patch_21">
    <path clip-path="url(#p9ded5c0493)" d="
M462 63
L481.633 63
L481.633 63
L462 63
z
" style="fill:#8dd3c7;"/>
   </g>
   <g id="patch_22">
    <path clip-path="url(#p9ded5c0493)" d="
M482.667 63
L502.3 63
L502.3 62.9944
L482.667 62.9944
z
" style="fill:#8dd3c7;"/>
   </g>
   <g id="patch_23">
    <path clip-path="url(#p9ded5c0493)" d="
M503.333 63
L522.967 63
L522.967 63
L503.333 63
z
" style="fill:#8dd3c7;"/>
   </g>
   <g id="patch_24">
    <path clip-path="url(#p9ded5c0493)" d="
M524 63
L543.633 63
L543.633 62.9609
L524 62.9609
z
" style="fill:#8dd3c7;"/>
   </g>
   <g id="patch_25">
    <path clip-path="url(#p9ded5c0493)" d="
M544.667 63
L564.3 63
L564.3 62.9777
L544.667 62.9777
z
" style="fill:#8dd3c7;"/>
   </g>
   <g id="patch_26">
    <path clip-path="url(#p9ded5c0493)" d="
M565.333 63
L584.967 63
L584.967 53.6768
L565.333 53.6768
z
" style="fill:#8dd3c7;"/>
   </g>
   <g id="patch_27">
    <path clip-path="url(#p9ded5c0493)" d="
M586 63
L605.633 63
L605.633 55.3506
L586 55.3506
z
" style="fill:#8dd3c7;"/>
   </g>
   <g id="patch_28">
    <path clip-path="url(#p9ded5c0493)" d="
M606.667 63
L626.3 63
L626.3 46.6785
L606.667 46.6785
z
" style="fill:#8dd3c7;"/>
   </g>
   <g id="patch_29">
    <path clip-path="url(#p9ded5c0493)" d="
M627.333 63
L646.967 63
L646.967 43.4011
L627.333 43.4011
z
" style="fill:#8dd3c7;"/>
   </g>
   <g id="patch_30">
    <path clip-path="url(#p9ded5c0493)" d="
M90 21.8977
L109.633 21.8977
L109.633 19.5262
L90 19.5262
z
" style="fill:#fdb462;"/>
   </g>
   <g id="patch_31">
    <path clip-path="url(#p9ded5c0493)" d="
M110.667 21.92
L130.3 21.92
L130.3 21.0886
L110.667 21.0886
z
" style="fill:#fdb462;"/>
   </g>
   <g id="patch_32">
    <path clip-path="url(#p9ded5c0493)" d="
M131.333 21.6076
L150.967 21.6076
L150.967 20.8543
L131.333 20.8543
z
" style="fill:#fdb462;"/>
   </g>
   <g id="patch_33">
    <path clip-path="url(#p9ded5c0493)" d="
M152 23.3485
L171.633 23.3485
L171.633 22.8184
L152 22.8184
z
" style="fill:#fdb462;"/>
   </g>
   <g id="patch_34">
    <path clip-path="url(#p9ded5c0493)" d="
M172.667 19.3321
L192.3 19.3321
L192.3 12.0662
L172.667 12.0662
z
" style="fill:#fdb462;"/>
   </g>
   <g id="patch_35">
    <path clip-path="url(#p9ded5c0493)" d="
M193.333 21.9773
L212.967 21.9773
L212.967 13.5953
L193.333 13.5953
z
" style="fill:#fdb462;"/>
   </g>
   <g id="patch_36">
    <path clip-path="url(#p9ded5c0493)" d="
M214 22.0581
L233.633 22.0581
L233.633 14.3696
L214 14.3696
z
" style="fill:#fdb462;"/>
   </g>
   <g id="patch_37">
    <path clip-path="url(#p9ded5c0493)" d="
M234.667 20.4692
L254.3 20.4692
L254.3 12.78
L234.667 12.78
z
" style="fill:#fdb462;"/>
   </g>
   <g id="patch_38">
    <path clip-path="url(#p9ded5c0493)" d="
M255.333 22.6622
L274.967 22.6622
L274.967 17.4393
L255.333 17.4393
z
" style="fill:#fdb462;"/>
   </g>
   <g id="patch_39">
    <path clip-path="url(#p9ded5c0493)" d="
M276 25.3201
L295.633 25.3201
L295.633 19.4605
L276 19.4605
z
" style="fill:#fdb462;"/>
   </g>
   <g id="patch_40">
    <path clip-path="url(#p9ded5c0493)" d="
M296.667 29.2131
L316.3 29.2131
L316.3 28.019
L296.667 28.019
z
" style="fill:#fdb462;"/>
   </g>
   <g id="patch_41">
    <path clip-path="url(#p9ded5c0493)" d="
M317.333 24.2525
L336.967 24.2525
L336.967 22.3441
L317.333 22.3441
z
" style="fill:#fdb462;"/>
   </g>
   <g id="patch_42">
    <path clip-path="url(#p9ded5c0493)" d="
M338 40.6633
L357.633 40.6633
L357.633 36.5843
L338 36.5843
z
" style="fill:#fdb462;"/>
   </g>
   <g id="patch_43">
    <path clip-path="url(#p9ded5c0493)" d="
M358.667 44.7534
L378.3 44.7534
L378.3 39.9434
L358.667 39.9434
z
" style="fill:#fdb462;"/>
   </g>
   <g id="patch_44">
    <path clip-path="url(#p9ded5c0493)" d="
M379.333 45.6891
L398.967 45.6891
L398.967 42.5249
L379.333 42.5249
z
" style="fill:#fdb462;"/>
   </g>
   <g id="patch_45">
    <path clip-path="url(#p9ded5c0493)" d="
M400 59.6743
L419.633 59.6743
L419.633 56.3486
L400 56.3486
z
" style="fill:#fdb462;"/>
   </g>
   <g id="patch_46">
    <path clip-path="url(#p9ded5c0493)" d="
M420.667 62.3862
L440.3 62.3862
L440.3 60.8517
L420.667 60.8517
z
" style="fill:#fdb462;"/>
   </g>
   <g id="patch_47">
    <path clip-path="url(#p9ded5c0493)" d="
M441.333 62.9498
L460.967 62.9498
L460.967 62.1797
L441.333 62.1797
z
" style="fill:#fdb462;"/>
   </g>
   <g id="patch_48">
    <path clip-path="url(#p9ded5c0493)" d="
M462 63
L481.633 63
L481.633 63
L462 63
z
" style="fill:#fdb462;"/>
   </g>
   <g id="patch_49">
    <path clip-path="url(#p9ded5c0493)" d="
M482.667 62.9944
L502.3 62.9944
L502.3 62.8772
L482.667 62.8772
z
" style="fill:#fdb462;"/>
   </g>
   <g id="patch_50">
    <path clip-path="url(#p9ded5c0493)" d="
M503.333 63
L522.967 63
L522.967 62.8103
L503.333 62.8103
z
" style="fill:#fdb462;"/>
   </g>
   <g id="patch_51">
    <path clip-path="url(#p9ded5c0493)" d="
M524 62.9609
L543.633 62.9609
L543.633 61.8673
L524 61.8673
z
" style="fill:#fdb462;"/>
   </g>
   <g id="patch_52">
    <path clip-path="url(#p9ded5c0493)" d="
M544.667 62.9777
L564.3 62.9777
L564.3 61.6217
L544.667 61.6217
z
" style="fill:#fdb462;"/>
   </g>
   <g id="patch_53">
    <path clip-path="url(#p9ded5c0493)" d="
M565.333 53.6768
L584.967 53.6768
L584.967 52.8008
L565.333 52.8008
z
" style="fill:#fdb462;"/>
   </g>
   <g id="patch_54">
    <path clip-path="url(#p9ded5c0493)" d="
M586 55.3506
L605.633 55.3506
L605.633 54.4746
L586 54.4746
z
" style="fill:#fdb462;"/>
   </g>
   <g id="patch_55">
    <path clip-path="url(#p9ded5c0493)" d="
M606.667 46.6785
L626.3 46.6785
L626.3 46.2265
L606.667 46.2265
z
" style="fill:#fdb462;"/>
   </g>
   <g id="patch_56">
    <path clip-path="url(#p9ded5c0493)" d="
M627.333 43.4011
L646.967 43.4011
L646.967 42.9602
L627.333 42.9602
z
" style="fill:#fdb462;"/>
   </g>
   <g id="patch_57">
    <path clip-path="url(#p9ded5c0493)" d="
M90 19.5262
L109.633 19.5262
L109.633 19.4314
L90 19.4314
z
" style="fill:#b3de69;"/>
   </g>
   <g id="patch_58">
    <path clip-path="url(#p9ded5c0493)" d="
M110.667 21.0886
L130.3 21.0886
L130.3 21.0663
L110.667 21.0663
z
" style="fill:#b3de69;"/>
   </g>
   <g id="patch_59">
    <path clip-path="url(#p9ded5c0493)" d="
M131.333 20.8543
L150.967 20.8543
L150.967 20.8543
L131.333 20.8543
z
" style="fill:#b3de69;"/>
   </g>
   <g id="patch_60">
    <path clip-path="url(#p9ded5c0493)" d="
M152 22.8184
L171.633 22.8184
L171.633 22.8128
L152 22.8128
z
" style="fill:#b3de69;"/>
   </g>
   <g id="patch_61">
    <path clip-path="url(#p9ded5c0493)" d="
M172.667 12.0662
L192.3 12.0662
L192.3 7.81944
L172.667 7.81944
z
" style="fill:#b3de69;"/>
   </g>
   <g id="patch_62">
    <path clip-path="url(#p9ded5c0493)" d="
M193.333 13.5953
L212.967 13.5953
L212.967 7.85293
L193.333 7.85293
z
" style="fill:#b3de69;"/>
   </g>
   <g id="patch_63">
    <path clip-path="url(#p9ded5c0493)" d="
M214 14.3696
L233.633 14.3696
L233.633 8.15408
L214 8.15408
z
" style="fill:#b3de69;"/>
   </g>
   <g id="patch_64">
    <path clip-path="url(#p9ded5c0493)" d="
M234.667 12.78
L254.3 12.78
L254.3 8.91306
L234.667 8.91306
z
" style="fill:#b3de69;"/>
   </g>
   <g id="patch_65">
    <path clip-path="url(#p9ded5c0493)" d="
M255.333 17.4393
L274.967 17.4393
L274.967 8.32158
L255.333 8.32158
z
" style="fill:#b3de69;"/>
   </g>
   <g id="patch_66">
    <path clip-path="url(#p9ded5c0493)" d="
M276 19.4605
L295.633 19.4605
L295.633 9.41548
L276 9.41548
z
" style="fill:#b3de69;"/>
   </g>
   <g id="patch_67">
    <path clip-path="url(#p9ded5c0493)" d="
M296.667 28.019
L316.3 28.019
L316.3 7.37856
L296.667 7.37856
z
" style="fill:#b3de69;"/>
   </g>
   <g id="patch_68">
    <path clip-path="url(#p9ded5c0493)" d="
M317.333 22.3441
L336.967 22.3441
L336.967 8.00352
L317.333 8.00352
z
" style="fill:#b3de69;"/>
   </g>
   <g id="patch_69">
    <path clip-path="url(#p9ded5c0493)" d="
M338 36.5843
L357.633 36.5843
L357.633 36.4615
L338 36.4615
z
" style="fill:#b3de69;"/>
   </g>
   <g id="patch_70">
    <path clip-path="url(#p9ded5c0493)" d="
M358.667 39.9434
L378.3 39.9434
L378.3 39.67
L358.667 39.67
z
" style="fill:#b3de69;"/>
   </g>
   <g id="patch_71">
    <path clip-path="url(#p9ded5c0493)" d="
M379.333 42.5249
L398.967 42.5249
L398.967 42.4356
L379.333 42.4356
z
" style="fill:#b3de69;"/>
   </g>
   <g id="patch_72">
    <path clip-path="url(#p9ded5c0493)" d="
M400 56.3486
L419.633 56.3486
L419.633 56.3096
L400 56.3096
z
" style="fill:#b3de69;"/>
   </g>
   <g id="patch_73">
    <path clip-path="url(#p9ded5c0493)" d="
M420.667 60.8517
L440.3 60.8517
L440.3 60.8405
L420.667 60.8405
z
" style="fill:#b3de69;"/>
   </g>
   <g id="patch_74">
    <path clip-path="url(#p9ded5c0493)" d="
M441.333 62.1797
L460.967 62.1797
L460.967 62.1742
L441.333 62.1742
z
" style="fill:#b3de69;"/>
   </g>
   <g id="patch_75">
    <path clip-path="url(#p9ded5c0493)" d="
M462 63
L481.633 63
L481.633 63
L462 63
z
" style="fill:#b3de69;"/>
   </g>
   <g id="patch_76">
    <path clip-path="url(#p9ded5c0493)" d="
M482.667 62.8772
L502.3 62.8772
L502.3 62.8717
L482.667 62.8717
z
" style="fill:#b3de69;"/>
   </g>
   <g id="patch_77">
    <path clip-path="url(#p9ded5c0493)" d="
M503.333 62.8103
L522.967 62.8103
L522.967 62.8047
L503.333 62.8047
z
" style="fill:#b3de69;"/>
   </g>
   <g id="patch_78">
    <path clip-path="url(#p9ded5c0493)" d="
M524 61.8673
L543.633 61.8673
L543.633 61.8561
L524 61.8561
z
" style="fill:#b3de69;"/>
   </g>
   <g id="patch_79">
    <path clip-path="url(#p9ded5c0493)" d="
M544.667 61.6217
L564.3 61.6217
L564.3 61.6106
L544.667 61.6106
z
" style="fill:#b3de69;"/>
   </g>
   <g id="patch_80">
    <path clip-path="url(#p9ded5c0493)" d="
M565.333 52.8008
L584.967 52.8008
L584.967 52.7896
L565.333 52.7896
z
" style="fill:#b3de69;"/>
   </g>
   <g id="patch_81">
    <path clip-path="url(#p9ded5c0493)" d="
M586 54.4746
L605.633 54.4746
L605.633 54.4635
L586 54.4635
z
" style="fill:#b3de69;"/>
   </g>
   <g id="patch_82">
    <path clip-path="url(#p9ded5c0493)" d="
M606.667 46.2265
L626.3 46.2265
L626.3 46.2265
L606.667 46.2265
z
" style="fill:#b3de69;"/>
   </g>
   <g id="patch_83">
    <path clip-path="url(#p9ded5c0493)" d="
M627.333 42.9602
L646.967 42.9602
L646.967 42.9602
L627.333 42.9602
z
" style="fill:#b3de69;"/>
   </g>
   <g id="patch_84">
    <path clip-path="url(#p9ded5c0493)" d="
M90 19.4314
L109.633 19.4314
L109.633 19.4314
L90 19.4314
z
" style="fill:#fa8174;"/>
   </g>
   <g id="patch_85">
    <path clip-path="url(#p9ded5c0493)" d="
M110.667 21.0663
L130.3 21.0663
L130.3 21.0663
L110.667 21.0663
z
" style="fill:#fa8174;"/>
   </g>
   <g id="patch_86">
    <path clip-path="url(#p9ded5c0493)" d="
M131.333 20.8543
L150.967 20.8543
L150.967 20.8543
L131.333 20.8543
z
" style="fill:#fa8174;"/>
   </g>
   <g id="patch_87">
    <path clip-path="url(#p9ded5c0493)" d="
M152 22.8128
L171.633 22.8128
L171.633 22.8128
L152 22.8128
z
" style="fill:#fa8174;"/>
   </g>
   <g id="patch_88">
    <path clip-path="url(#p9ded5c0493)" d="
M172.667 7.81944
L192.3 7.81944
L192.3 7.81944
L172.667 7.81944
z
" style="fill:#fa8174;"/>
   </g>
   <g id="patch_89">
    <path clip-path="url(#p9ded5c0493)" d="
M193.333 7.85293
L212.967 7.85293
L212.967 7.85293
L193.333 7.85293
z
" style="fill:#fa8174;"/>
   </g>
   <g id="patch_90">
    <path clip-path="url(#p9ded5c0493)" d="
M214 8.15408
L233.633 8.15408
L233.633 8.15408
L214 8.15408
z
" style="fill:#fa8174;"/>
   </g>
   <g id="patch_91">
    <path clip-path="url(#p9ded5c0493)" d="
M234.667 8.91306
L254.3 8.91306
L254.3 8.91306
L234.667 8.91306
z
" style="fill:#fa8174;"/>
   </g>
   <g id="patch_92">
    <path clip-path="url(#p9ded5c0493)" d="
M255.333 8.32158
L274.967 8.32158
L274.967 8.32158
L255.333 8.32158
z
" style="fill:#fa8174;"/>
   </g>
   <g id="patch_93">
    <path clip-path="url(#p9ded5c0493)" d="
M276 9.41548
L295.633 9.41548
L295.633 9.41548
L276 9.41548
z
" style="fill:#fa8174;"/>
   </g>
   <g id="patch_94">
    <path clip-path="url(#p9ded5c0493)" d="
M296.667 7.37856
L316.3 7.37856
L316.3 7.37856
L296.667 7.37856
z
" style="fill:#fa8174;"/>
   </g>
   <g id="patch_95">
    <path clip-path="url(#p9ded5c0493)" d="
M317.333 8.00352
L336.967 8.00352
L336.967 8.00352
L317.333 8.00352
z
" style="fill:#fa8174;"/>
   </g>
   <g id="patch_96">
    <path clip-path="url(#p9ded5c0493)" d="
M338 36.4615
L357.633 36.4615
L357.633 9.07488
L338 9.07488
z
" style="fill:#fa8174;"/>
   </g>
   <g id="patch_97">
    <path clip-path="url(#p9ded5c0493)" d="
M358.667 39.67
L378.3 39.67
L378.3 8.52804
L358.667 8.52804
z
" style="fill:#fa8174;"/>
   </g>
   <g id="patch_98">
    <path clip-path="url(#p9ded5c0493)" d="
M379.333 42.4356
L398.967 42.4356
L398.967 8.6063
L379.333 8.6063
z
" style="fill:#fa8174;"/>
   </g>
   <g id="patch_99">
    <path clip-path="url(#p9ded5c0493)" d="
M400 56.3096
L419.633 56.3096
L419.633 8.94654
L400 8.94654
z
" style="fill:#fa8174;"/>
   </g>
   <g id="patch_100">
    <path clip-path="url(#p9ded5c0493)" d="
M420.667 60.8405
L440.3 60.8405
L440.3 7.96446
L420.667 7.96446
z
" style="fill:#fa8174;"/>
   </g>
   <g id="patch_101">
    <path clip-path="url(#p9ded5c0493)" d="
M441.333 62.1742
L460.967 62.1742
L460.967 7.6464
L441.333 7.6464
z
" style="fill:#fa8174;"/>
   </g>
   <g id="patch_102">
    <path clip-path="url(#p9ded5c0493)" d="
M462 63
L481.633 63
L481.633 7.2
L462 7.2
z
" style="fill:#fa8174;"/>
   </g>
   <g id="patch_103">
    <path clip-path="url(#p9ded5c0493)" d="
M482.667 62.8717
L502.3 62.8717
L502.3 7.2837
L482.667 7.2837
z
" style="fill:#fa8174;"/>
   </g>
   <g id="patch_104">
    <path clip-path="url(#p9ded5c0493)" d="
M503.333 62.8047
L522.967 62.8047
L522.967 62.8047
L503.333 62.8047
z
" style="fill:#fa8174;"/>
   </g>
   <g id="patch_105">
    <path clip-path="url(#p9ded5c0493)" d="
M524 61.8561
L543.633 61.8561
L543.633 61.8561
L524 61.8561
z
" style="fill:#fa8174;"/>
   </g>
   <g id="patch_106">
    <path clip-path="url(#p9ded5c0493)" d="
M544.667 61.6106
L564.3 61.6106
L564.3 61.6106
L544.667 61.6106
z
" style="fill:#fa8174;"/>
   </g>
   <g id="patch_107">
    <path clip-path="url(#p9ded5c0493)" d="
M565.333 52.7896
L584.967 52.7896
L584.967 48.0415
L565.333 48.0415
z
" style="fill:#fa8174;"/>
   </g>
   <g id="patch_108">
    <path clip-path="url(#p9ded5c0493)" d="
M586 54.4635
L605.633 54.4635
L605.633 54.4635
L586 54.4635
z
" style="fill:#fa8174;"/>
   </g>
   <g id="patch_109">
    <path clip-path="url(#p9ded5c0493)" d="
M606.667 46.2265
L626.3 46.2265
L626.3 46.2265
L606.667 46.2265
z
" style="fill:#fa8174;"/>
   </g>
   <g id="patch_110">
    <path clip-path="url(#p9ded5c0493)" d="
M627.333 42.9602
L646.967 42.9602
L646.967 42.9602
L627.333 42.9602
z
" style="fill:#fa8174;"/>
   </g>
   <g id="patch_111">
    <path clip-path="url(#p9ded5c0493)" d="
M90 19.4314
L109.633 19.4314
L109.633 8.02026
L90 8.02026
z
" style="fill:#bfbbd9;"/>
   </g>
   <g id="patch_112">
    <path clip-path="url(#p9ded5c0493)" d="
M110.667 21.0663
L130.3 21.0663
L130.3 7.57944
L110.667 7.57944
z
" style="fill:#bfbbd9;"/>
   </g>
   <g id="patch_113">
    <path clip-path="url(#p9ded5c0493)" d="
M131.333 20.8543
L150.967 20.8543
L150.967 7.94772
L131.333 7.94772
z
" style="fill:#bfbbd9;"/>
   </g>
   <g id="patch_114">
    <path clip-path="url(#p9ded5c0493)" d="
M152 22.8128
L171.633 22.8128
L171.633 7.69662
L152 7.69662
z
" style="fill:#bfbbd9;"/>
   </g>
   <g id="patch_115">
    <path clip-path="url(#p9ded5c0493)" d="
M172.667 7.81944
L192.3 7.81944
L192.3 7.43996
L172.667 7.43996
z
" style="fill:#bfbbd9;"/>
   </g>
   <g id="patch_116">
    <path clip-path="url(#p9ded5c0493)" d="
M193.333 7.85293
L212.967 7.85293
L212.967 7.46787
L193.333 7.46787
z
" style="fill:#bfbbd9;"/>
   </g>
   <g id="patch_117">
    <path clip-path="url(#p9ded5c0493)" d="
M214 8.15408
L233.633 8.15408
L233.633 7.30043
L214 7.30043
z
" style="fill:#bfbbd9;"/>
   </g>
   <g id="patch_118">
    <path clip-path="url(#p9ded5c0493)" d="
M234.667 8.91306
L254.3 8.91306
L254.3 7.88634
L234.667 7.88634
z
" style="fill:#bfbbd9;"/>
   </g>
   <g id="patch_119">
    <path clip-path="url(#p9ded5c0493)" d="
M255.333 8.32158
L274.967 8.32158
L274.967 7.80822
L255.333 7.80822
z
" style="fill:#bfbbd9;"/>
   </g>
   <g id="patch_120">
    <path clip-path="url(#p9ded5c0493)" d="
M276 9.41548
L295.633 9.41548
L295.633 8.58956
L276 8.58956
z
" style="fill:#bfbbd9;"/>
   </g>
   <g id="patch_121">
    <path clip-path="url(#p9ded5c0493)" d="
M296.667 7.37856
L316.3 7.37856
L316.3 7.37298
L296.667 7.37298
z
" style="fill:#bfbbd9;"/>
   </g>
   <g id="patch_122">
    <path clip-path="url(#p9ded5c0493)" d="
M317.333 8.00352
L336.967 8.00352
L336.967 7.83612
L317.333 7.83612
z
" style="fill:#bfbbd9;"/>
   </g>
   <g id="patch_123">
    <path clip-path="url(#p9ded5c0493)" d="
M338 9.07488
L357.633 9.07488
L357.633 8.27694
L338 8.27694
z
" style="fill:#bfbbd9;"/>
   </g>
   <g id="patch_124">
    <path clip-path="url(#p9ded5c0493)" d="
M358.667 8.52804
L378.3 8.52804
L378.3 7.85286
L358.667 7.85286
z
" style="fill:#bfbbd9;"/>
   </g>
   <g id="patch_125">
    <path clip-path="url(#p9ded5c0493)" d="
M379.333 8.6063
L398.967 8.6063
L398.967 7.97012
L379.333 7.97012
z
" style="fill:#bfbbd9;"/>
   </g>
   <g id="patch_126">
    <path clip-path="url(#p9ded5c0493)" d="
M400 8.94654
L419.633 8.94654
L419.633 8.17092
L400 8.17092
z
" style="fill:#bfbbd9;"/>
   </g>
   <g id="patch_127">
    <path clip-path="url(#p9ded5c0493)" d="
M420.667 7.96446
L440.3 7.96446
L440.3 7.60734
L420.667 7.60734
z
" style="fill:#bfbbd9;"/>
   </g>
   <g id="patch_128">
    <path clip-path="url(#p9ded5c0493)" d="
M441.333 7.6464
L460.967 7.6464
L460.967 7.4511
L441.333 7.4511
z
" style="fill:#bfbbd9;"/>
   </g>
   <g id="patch_129">
    <path clip-path="url(#p9ded5c0493)" d="
M462 7.2
L481.633 7.2
L481.633 7.2
L462 7.2
z
" style="fill:#bfbbd9;"/>
   </g>
   <g id="patch_130">
    <path clip-path="url(#p9ded5c0493)" d="
M482.667 7.2837
L502.3 7.2837
L502.3 7.25022
L482.667 7.25022
z
" style="fill:#bfbbd9;"/>
   </g>
   <g id="patch_131">
    <path clip-path="url(#p9ded5c0493)" d="
M503.333 62.8047
L522.967 62.8047
L522.967 62.7433
L503.333 62.7433
z
" style="fill:#bfbbd9;"/>
   </g>
   <g id="patch_132">
    <path clip-path="url(#p9ded5c0493)" d="
M524 61.8561
L543.633 61.8561
L543.633 61.5827
L524 61.5827
z
" style="fill:#bfbbd9;"/>
   </g>
   <g id="patch_133">
    <path clip-path="url(#p9ded5c0493)" d="
M544.667 61.6106
L564.3 61.6106
L564.3 61.3539
L544.667 61.3539
z
" style="fill:#bfbbd9;"/>
   </g>
   <g id="patch_134">
    <path clip-path="url(#p9ded5c0493)" d="
M565.333 48.0415
L584.967 48.0415
L584.967 47.69
L565.333 47.69
z
" style="fill:#bfbbd9;"/>
   </g>
   <g id="patch_135">
    <path clip-path="url(#p9ded5c0493)" d="
M586 54.4635
L605.633 54.4635
L605.633 53.8944
L586 53.8944
z
" style="fill:#bfbbd9;"/>
   </g>
   <g id="patch_136">
    <path clip-path="url(#p9ded5c0493)" d="
M606.667 46.2265
L626.3 46.2265
L626.3 44.7422
L606.667 44.7422
z
" style="fill:#bfbbd9;"/>
   </g>
   <g id="patch_137">
    <path clip-path="url(#p9ded5c0493)" d="
M627.333 42.9602
L646.967 42.9602
L646.967 42.5082
L627.333 42.5082
z
" style="fill:#bfbbd9;"/>
   </g>
   <g id="patch_138">
    <path clip-path="url(#p9ded5c0493)" d="
M90 8.02026
L109.633 8.02026
L109.633 7.2
L90 7.2
z
" style="fill:#81b1d2;"/>
   </g>
   <g id="patch_139">
    <path clip-path="url(#p9ded5c0493)" d="
M110.667 7.57944
L130.3 7.57944
L130.3 7.2
L110.667 7.2
z
" style="fill:#81b1d2;"/>
   </g>
   <g id="patch_140">
    <path clip-path="url(#p9ded5c0493)" d="
M131.333 7.94772
L150.967 7.94772
L150.967 7.2
L131.333 7.2
z
" style="fill:#81b1d2;"/>
   </g>
   <g id="patch_141">
    <path clip-path="url(#p9ded5c0493)" d="
M152 7.69662
L171.633 7.69662
L171.633 7.2
L152 7.2
z
" style="fill:#81b1d2;"/>
   </g>
   <g id="patch_142">
    <path clip-path="url(#p9ded5c0493)" d="
M172.667 7.43996
L192.3 7.43996
L192.3 7.2
L172.667 7.2
z
" style="fill:#81b1d2;"/>
   </g>
   <g id="patch_143">
    <path clip-path="url(#p9ded5c0493)" d="
M193.333 7.46787
L212.967 7.46787
L212.967 7.2
L193.333 7.2
z
" style="fill:#81b1d2;"/>
   </g>
   <g id="patch_144">
    <path clip-path="url(#p9ded5c0493)" d="
M214 7.30043
L233.633 7.30043
L233.633 7.2
L214 7.2
z
" style="fill:#81b1d2;"/>
   </g>
   <g id="patch_145">
    <path clip-path="url(#p9ded5c0493)" d="
M234.667 7.88634
L254.3 7.88634
L254.3 7.2
L234.667 7.2
z
" style="fill:#81b1d2;"/>
   </g>
   <g id="patch_146">
    <path clip-path="url(#p9ded5c0493)" d="
M255.333 7.80822
L274.967 7.80822
L274.967 7.2
L255.333 7.2
z
" style="fill:#81b1d2;"/>
   </g>
   <g id="patch_147">
    <path clip-path="url(#p9ded5c0493)" d="
M276 8.58956
L295.633 8.58956
L295.633 7.2
L276 7.2
z
" style="fill:#81b1d2;"/>
   </g>
   <g id="patch_148">
    <path clip-path="url(#p9ded5c0493)" d="
M296.667 7.37298
L316.3 7.37298
L316.3 7.2
L296.667 7.2
z
" style="fill:#81b1d2;"/>
   </g>
   <g id="patch_149">
    <path clip-path="url(#p9ded5c0493)" d="
M317.333 7.83612
L336.967 7.83612
L336.967 7.2
L317.333 7.2
z
" style="fill:#81b1d2;"/>
   </g>
   <g id="patch_150">
    <path clip-path="url(#p9ded5c0493)" d="
M338 8.27694
L357.633 8.27694
L357.633 7.2
L338 7.2
z
" style="fill:#81b1d2;"/>
   </g>
   <g id="patch_151">
    <path clip-path="url(#p9ded5c0493)" d="
M358.667 7.85286
L378.3 7.85286
L378.3 7.2
L358.667 7.2
z
" style="fill:#81b1d2;"/>
   </g>
   <g id="patch_152">
    <path clip-path="url(#p9ded5c0493)" d="
M379.333 7.97012
L398.967 7.97012
L398.967 7.2
L379.333 7.2
z
" style="fill:#81b1d2;"/>
   </g>
   <g id="patch_153">
    <path clip-path="url(#p9ded5c0493)" d="
M400 8.17092
L419.633 8.17092
L419.633 7.2
L400 7.2
z
" style="fill:#81b1d2;"/>
   </g>
   <g id="patch_154">
    <path clip-path="url(#p9ded5c0493)" d="
M420.667 7.60734
L440.3 7.60734
L440.3 7.2
L420.667 7.2
z
" style="fill:#81b1d2;"/>
   </g>
   <g id="patch_155">
    <path clip-path="url(#p9ded5c0493)" d="
M441.333 7.4511
L460.967 7.4511
L460.967 7.2
L441.333 7.2
z
" style="fill:#81b1d2;"/>
   </g>
   <g id="patch_156">
    <path clip-path="url(#p9ded5c0493)" d="
M462 7.2
L481.633 7.2
L481.633 7.2
L462 7.2
z
" style="fill:#81b1d2;"/>
   </g>
   <g id="patch_157">
    <path clip-path="url(#p9ded5c0493)" d="
M482.667 7.25022
L502.3 7.25022
L502.3 7.2
L482.667 7.2
z
" style="fill:#81b1d2;"/>
   </g>
   <g id="patch_158">
    <path clip-path="url(#p9ded5c0493)" d="
M503.333 62.7433
L522.967 62.7433
L522.967 62.7322
L503.333 62.7322
z
" style="fill:#81b1d2;"/>
   </g>
   <g id="patch_159">
    <path clip-path="url(#p9ded5c0493)" d="
M524 61.5827
L543.633 61.5827
L543.633 61.3539
L524 61.3539
z
" style="fill:#81b1d2;"/>
   </g>
   <g id="patch_160">
    <path clip-path="url(#p9ded5c0493)" d="
M544.667 61.3539
L564.3 61.3539
L564.3 61.0805
L544.667 61.0805
z
" style="fill:#81b1d2;"/>
   </g>
   <g id="patch_161">
    <path clip-path="url(#p9ded5c0493)" d="
M565.333 47.69
L584.967 47.69
L584.967 29.9418
L565.333 29.9418
z
" style="fill:#81b1d2;"/>
   </g>
   <g id="patch_162">
    <path clip-path="url(#p9ded5c0493)" d="
M586 53.8944
L605.633 53.8944
L605.633 35.923
L586 35.923
z
" style="fill:#81b1d2;"/>
   </g>
   <g id="patch_163">
    <path clip-path="url(#p9ded5c0493)" d="
M606.667 44.7422
L626.3 44.7422
L626.3 25.826
L606.667 25.826
z
" style="fill:#81b1d2;"/>
   </g>
   <g id="patch_164">
    <path clip-path="url(#p9ded5c0493)" d="
M627.333 42.5082
L646.967 42.5082
L646.967 24.6392
L627.333 24.6392
z
" style="fill:#81b1d2;"/>
   </g>
   <g id="patch_165">
    <path clip-path="url(#p9ded5c0493)" d="
M90 7.2
L109.633 7.2
L109.633 7.2
L90 7.2
z
" style="fill:#feffb3;"/>
   </g>
   <g id="patch_166">
    <path clip-path="url(#p9ded5c0493)" d="
M110.667 7.2
L130.3 7.2
L130.3 7.2
L110.667 7.2
z
" style="fill:#feffb3;"/>
   </g>
   <g id="patch_167">
    <path clip-path="url(#p9ded5c0493)" d="
M131.333 7.2
L150.967 7.2
L150.967 7.2
L131.333 7.2
z
" style="fill:#feffb3;"/>
   </g>
   <g id="patch_168">
    <path clip-path="url(#p9ded5c0493)" d="
M152 7.2
L171.633 7.2
L171.633 7.2
L152 7.2
z
" style="fill:#feffb3;"/>
   </g>
   <g id="patch_169">
    <path clip-path="url(#p9ded5c0493)" d="
M172.667 7.2
L192.3 7.2
L192.3 7.2
L172.667 7.2
z
" style="fill:#feffb3;"/>
   </g>
   <g id="patch_170">
    <path clip-path="url(#p9ded5c0493)" d="
M193.333 7.2
L212.967 7.2
L212.967 7.2
L193.333 7.2
z
" style="fill:#feffb3;"/>
   </g>
   <g id="patch_171">
    <path clip-path="url(#p9ded5c0493)" d="
M214 7.2
L233.633 7.2
L233.633 7.2
L214 7.2
z
" style="fill:#feffb3;"/>
   </g>
   <g id="patch_172">
    <path clip-path="url(#p9ded5c0493)" d="
M234.667 7.2
L254.3 7.2
L254.3 7.2
L234.667 7.2
z
" style="fill:#feffb3;"/>
   </g>
   <g id="patch_173">
    <path clip-path="url(#p9ded5c0493)" d="
M255.333 7.2
L274.967 7.2
L274.967 7.2
L255.333 7.2
z
" style="fill:#feffb3;"/>
   </g>
   <g id="patch_174">
    <path clip-path="url(#p9ded5c0493)" d="
M276 7.2
L295.633 7.2
L295.633 7.2
L276 7.2
z
" style="fill:#feffb3;"/>
   </g>
   <g id="patch_175">
    <path clip-path="url(#p9ded5c0493)" d="
M296.667 7.2
L316.3 7.2
L316.3 7.2
L296.667 7.2
z
" style="fill:#feffb3;"/>
   </g>
   <g id="patch_176">
    <path clip-path="url(#p9ded5c0493)" d="
M317.333 7.2
L336.967 7.2
L336.967 7.2
L317.333 7.2
z
" style="fill:#feffb3;"/>
   </g>
   <g id="patch_177">
    <path clip-path="url(#p9ded5c0493)" d="
M338 7.2
L357.633 7.2
L357.633 7.2
L338 7.2
z
" style="fill:#feffb3;"/>
   </g>
   <g id="patch_178">
    <path clip-path="url(#p9ded5c0493)" d="
M358.667 7.2
L378.3 7.2
L378.3 7.2
L358.667 7.2
z
" style="fill:#feffb3;"/>
   </g>
   <g id="patch_179">
    <path clip-path="url(#p9ded5c0493)" d="
M379.333 7.2
L398.967 7.2
L398.967 7.2
L379.333 7.2
z
" style="fill:#feffb3;"/>
   </g>
   <g id="patch_180">
    <path clip-path="url(#p9ded5c0493)" d="
M400 7.2
L419.633 7.2
L419.633 7.2
L400 7.2
z
" style="fill:#feffb3;"/>
   </g>
   <g id="patch_181">
    <path clip-path="url(#p9ded5c0493)" d="
M420.667 7.2
L440.3 7.2
L440.3 7.2
L420.667 7.2
z
" style="fill:#feffb3;"/>
   </g>
   <g id="patch_182">
    <path clip-path="url(#p9ded5c0493)" d="
M441.333 7.2
L460.967 7.2
L460.967 7.2
L441.333 7.2
z
" style="fill:#feffb3;"/>
   </g>
   <g id="patch_183">
    <path clip-path="url(#p9ded5c0493)" d="
M462 7.2
L481.633 7.2
L481.633 7.2
L462 7.2
z
" style="fill:#feffb3;"/>
   </g>
   <g id="patch_184">
    <path clip-path="url(#p9ded5c0493)" d="
M482.667 7.2
L502.3 7.2
L502.3 7.2
L482.667 7.2
z
" style="fill:#feffb3;"/>
   </g>
   <g id="patch_185">
    <path clip-path="url(#p9ded5c0493)" d="
M503.333 62.7322
L522.967 62.7322
L522.967 7.2
L503.333 7.2
z
" style="fill:#feffb3;"/>
   </g>
   <g id="patch_186">
    <path clip-path="url(#p9ded5c0493)" d="
M524 61.3539
L543.633 61.3539
L543.633 7.2
L524 7.2
z
" style="fill:#feffb3;"/>
   </g>
   <g id="patch_187">
    <path clip-path="url(#p9ded5c0493)" d="
M544.667 61.0805
L564.3 61.0805
L564.3 7.2
L544.667 7.2
z
" style="fill:#feffb3;"/>
   </g>
   <g id="patch_188">
    <path clip-path="url(#p9ded5c0493)" d="
M565.333 29.9418
L584.967 29.9418
L584.967 7.2
L565.333 7.2
z
" style="fill:#feffb3;"/>
   </g>
   <g id="patch_189">
    <path clip-path="url(#p9ded5c0493)" d="
M586 35.923
L605.633 35.923
L605.633 7.2
L586 7.2
z
" style="fill:#feffb3;"/>
   </g>
   <g id="patch_190">
    <path clip-path="url(#p9ded5c0493)" d="
M606.667 25.826
L626.3 25.826
L626.3 7.2
L606.667 7.2
z
" style="fill:#feffb3;"/>
   </g>
   <g id="patch_191">
    <path clip-path="url(#p9ded5c0493)" d="
M627.333 24.6392
L646.967 24.6392
L646.967 7.2
L627.333 7.2
z
" style="fill:#feffb3;"/>
   </g>
   <g id="line2d_1">
    <path clip-path="url(#p9ded5c0493)" d="
M90 63
L90 7.2" style="fill:none;stroke:#262626;stroke-linecap:round;stroke-width:1.5;"/>
   </g>
   <g id="line2d_2">
    <path clip-path="url(#p9ded5c0493)" d="
M171.633 63
L171.633 7.2" style="fill:none;stroke:#262626;stroke-linecap:round;stroke-width:1.5;"/>
   </g>
   <g id="line2d_3">
    <path clip-path="url(#p9ded5c0493)" d="
M254.3 63
L254.3 7.2" style="fill:none;stroke:#262626;stroke-linecap:round;stroke-width:1.5;"/>
   </g>
   <g id="line2d_4">
    <path clip-path="url(#p9ded5c0493)" d="
M336.967 63
L336.967 7.2" style="fill:none;stroke:#262626;stroke-linecap:round;stroke-width:1.5;"/>
   </g>
   <g id="line2d_5">
    <path clip-path="url(#p9ded5c0493)" d="
M398.967 63
L398.967 7.2" style="fill:none;stroke:#262626;stroke-linecap:round;stroke-width:1.5;"/>
   </g>
   <g id="line2d_6">
    <path clip-path="url(#p9ded5c0493)" d="
M502.3 63
L502.3 7.2" style="fill:none;stroke:#262626;stroke-linecap:round;stroke-width:1.5;"/>
   </g>
   <g id="line2d_7">
    <path clip-path="url(#p9ded5c0493)" d="
M564.3 63
L564.3 7.2" style="fill:none;stroke:#262626;stroke-linecap:round;stroke-width:1.5;"/>
   </g>
   <g id="line2d_8">
    <path clip-path="url(#p9ded5c0493)" d="
M646.967 63
L646.967 7.2" style="fill:none;stroke:#262626;stroke-linecap:round;stroke-width:1.5;"/>
   </g>
   <g id="line2d_9">
    <path clip-path="url(#p9ded5c0493)" d="
M90 62.9721
L648 62.9721" style="fill:none;stroke:#262626;stroke-linecap:round;stroke-width:1.3;"/>
   </g>
   <g id="line2d_10">
    <path clip-path="url(#p9ded5c0493)" d="
M90 7.2
L648 7.2" style="fill:none;stroke:#262626;stroke-linecap:round;stroke-width:1.3;"/>
   </g>
   <g id="patch_192">
    <path d="
M90 7.2
L648 7.2" style="fill:none;"/>
   </g>
   <g id="patch_193">
    <path d="
M648 63
L648 7.2" style="fill:none;"/>
   </g>
   <g id="patch_194">
    <path d="
M90 63
L648 63" style="fill:none;"/>
   </g>
   <g id="patch_195">
    <path d="
M90 63
L90 7.2" style="fill:none;"/>
   </g>
  </g>
 </g>
 <defs>
  <clipPath id="p9ded5c0493">
   <rect height="55.8" width="558.0" x="90.0" y="7.2"/>
  </clipPath>
 </defs>
</svg>
