<?xml version="1.0" encoding="utf-8" standalone="no"?>
<!DOCTYPE svg PUBLIC "-//W3C//DTD SVG 1.1//EN"
  "http://www.w3.org/Graphics/SVG/1.1/DTD/svg11.dtd">
<!-- Created with matplotlib (http://matplotlib.org/) -->
<svg height="72pt" version="1.1" viewBox="0 0 720 72" width="720pt" xmlns="http://www.w3.org/2000/svg" xmlns:xlink="http://www.w3.org/1999/xlink">
 <defs>
  <style type="text/css">
*{stroke-linecap:butt;stroke-linejoin:round;}
  </style>
 </defs>
 <g id="figure_1">
  <g id="patch_1">
   <path d="
M0 72
L720 72
L720 0
L0 0
z
" style="fill:#ffffff;"/>
  </g>
  <g id="axes_1">
   <g id="patch_2">
    <path d="
M90 63
L648 63
L648 7.2
L90 7.2
z
" style="fill:#eaeaf2;"/>
   </g>
   <g id="matplotlib.axis_1"/>
   <g id="matplotlib.axis_2"/>
   <g id="patch_3">
    <path clip-path="url(#p9ded5c0493)" d="
M90 63
L109.633 63
L109.633 16.1224
L90 16.1224
z
" style="fill:#8dd3c7;"/>
   </g>
   <g id="patch_4">
    <path clip-path="url(#p9ded5c0493)" d="
M110.667 63
L130.3 63
L130.3 14.906
L110.667 14.906
z
" style="fill:#8dd3c7;"/>
   </g>
   <g id="patch_5">
    <path clip-path="url(#p9ded5c0493)" d="
M131.333 63
L150.967 63
L150.967 15.0287
L131.333 15.0287
z
" style="fill:#8dd3c7;"/>
   </g>
   <g id="patch_6">
    <path clip-path="url(#p9ded5c0493)" d="
M152 63
L171.633 63
L171.633 15.2966
L152 15.2966
z
" style="fill:#8dd3c7;"/>
   </g>
   <g id="patch_7">
    <path clip-path="url(#p9ded5c0493)" d="
M172.667 63
L192.3 63
L192.3 16.9213
L172.667 16.9213
z
" style="fill:#8dd3c7;"/>
   </g>
   <g id="patch_8">
    <path clip-path="url(#p9ded5c0493)" d="
M193.333 63
L212.967 63
L212.967 19.8499
L193.333 19.8499
z
" style="fill:#8dd3c7;"/>
   </g>
   <g id="patch_9">
    <path clip-path="url(#p9ded5c0493)" d="
M214 63
L233.633 63
L233.633 20.0507
L214 20.0507
z
" style="fill:#8dd3c7;"/>
   </g>
   <g id="patch_10">
    <path clip-path="url(#p9ded5c0493)" d="
M234.667 63
L254.3 63
L254.3 17.8969
L234.667 17.8969
z
" style="fill:#8dd3c7;"/>
   </g>
   <g id="patch_11">
    <path clip-path="url(#p9ded5c0493)" d="
M255.333 63
L274.967 63
L274.967 20.3074
L255.333 20.3074
z
" style="fill:#8dd3c7;"/>
   </g>
   <g id="patch_12">
    <path clip-path="url(#p9ded5c0493)" d="
M276 63
L295.633 63
L295.633 23.0233
L276 23.0233
z
" style="fill:#8dd3c7;"/>
   </g>
   <g id="patch_13">
    <path clip-path="url(#p9ded5c0493)" d="
M296.667 63
L316.3 63
L316.3 26.6798
L296.667 26.6798
z
" style="fill:#8dd3c7;"/>
   </g>
   <g id="patch_14">
    <path clip-path="url(#p9ded5c0493)" d="
M317.333 63
L336.967 63
L336.967 21.9591
L317.333 21.9591
z
" style="fill:#8dd3c7;"/>
   </g>
   <g id="patch_15">
    <path clip-path="url(#p9ded5c0493)" d="
M338 63
L357.633 63
L357.633 39.4915
L338 39.4915
z
" style="fill:#8dd3c7;"/>
   </g>
   <g id="patch_16">
    <path clip-path="url(#p9ded5c0493)" d="
M358.667 63
L378.3 63
L378.3 43.4644
L358.667 43.4644
z
" style="fill:#8dd3c7;"/>
   </g>
   <g id="patch_17">
    <path clip-path="url(#p9ded5c0493)" d="
M379.333 63
L398.967 63
L398.967 44.8762
L379.333 44.8762
z
" style="fill:#8dd3c7;"/>
   </g>
   <g id="patch_18">
    <path clip-path="url(#p9ded5c0493)" d="
M400 63
L419.633 63
L419.633 59.7689
L400 59.7689
z
" style="fill:#8dd3c7;"/>
   </g>
   <g id="patch_19">
    <path clip-path="url(#p9ded5c0493)" d="
M420.667 63
L440.3 63
L440.3 62.5145
L420.667 62.5145
z
" style="fill:#8dd3c7;"/>
   </g>
   <g id="patch_20">
    <path clip-path="url(#p9ded5c0493)" d="
M441.333 63
L460.967 63
L460.967 62.9609
L441.333 62.9609
z
" style="fill:#8dd3c7;"/>
   </g>
   <g id="patch_21">
    <path clip-path="url(#p9ded5c0493)" d="
M462 63
L481.633 63
L481.633 63
L462 63
z
" style="fill:#8dd3c7;"/>
   </g>
   <g id="patch_22">
    <path clip-path="url(#p9ded5c0493)" d="
M482.667 63
L502.3 63
L502.3 63
L482.667 63
z
" style="fill:#8dd3c7;"/>
   </g>
   <g id="patch_23">
    <path clip-path="url(#p9ded5c0493)" d="
M503.333 63
L522.967 63
L522.967 63
L503.333 63
z
" style="fill:#8dd3c7;"/>
   </g>
   <g id="patch_24">
    <path clip-path="url(#p9ded5c0493)" d="
M524 63
L543.633 63
L543.633 63
L524 63
z
" style="fill:#8dd3c7;"/>
   </g>
   <g id="patch_25">
    <path clip-path="url(#p9ded5c0493)" d="
M544.667 63
L564.3 63
L564.3 63
L544.667 63
z
" style="fill:#8dd3c7;"/>
   </g>
   <g id="patch_26">
    <path clip-path="url(#p9ded5c0493)" d="
M565.333 63
L584.967 63
L584.967 52.677
L565.333 52.677
z
" style="fill:#8dd3c7;"/>
   </g>
   <g id="patch_27">
    <path clip-path="url(#p9ded5c0493)" d="
M586 63
L605.633 63
L605.633 54.0274
L586 54.0274
z
" style="fill:#8dd3c7;"/>
   </g>
   <g id="patch_28">
    <path clip-path="url(#p9ded5c0493)" d="
M606.667 63
L626.3 63
L626.3 44.6027
L606.667 44.6027
z
" style="fill:#8dd3c7;"/>
   </g>
   <g id="patch_29">
    <path clip-path="url(#p9ded5c0493)" d="
M627.333 63
L646.967 63
L646.967 41.4724
L627.333 41.4724
z
" style="fill:#8dd3c7;"/>
   </g>
   <g id="patch_30">
    <path clip-path="url(#p9ded5c0493)" d="
M90 16.1224
L109.633 16.1224
L109.633 7.7859
L90 7.7859
z
" style="fill:#bfbbd9;"/>
   </g>
   <g id="patch_31">
    <path clip-path="url(#p9ded5c0493)" d="
M110.667 14.906
L130.3 14.906
L130.3 7.59618
L110.667 7.59618
z
" style="fill:#bfbbd9;"/>
   </g>
   <g id="patch_32">
    <path clip-path="url(#p9ded5c0493)" d="
M131.333 15.0287
L150.967 15.0287
L150.967 7.74126
L131.333 7.74126
z
" style="fill:#bfbbd9;"/>
   </g>
   <g id="patch_33">
    <path clip-path="url(#p9ded5c0493)" d="
M152 15.2966
L171.633 15.2966
L171.633 7.74684
L152 7.74684
z
" style="fill:#bfbbd9;"/>
   </g>
   <g id="patch_34">
    <path clip-path="url(#p9ded5c0493)" d="
M172.667 16.9213
L192.3 16.9213
L192.3 13.8576
L172.667 13.8576
z
" style="fill:#bfbbd9;"/>
   </g>
   <g id="patch_35">
    <path clip-path="url(#p9ded5c0493)" d="
M193.333 19.8499
L212.967 19.8499
L212.967 17.1826
L193.333 17.1826
z
" style="fill:#bfbbd9;"/>
   </g>
   <g id="patch_36">
    <path clip-path="url(#p9ded5c0493)" d="
M214 20.0507
L233.633 20.0507
L233.633 17.7127
L214 17.7127
z
" style="fill:#bfbbd9;"/>
   </g>
   <g id="patch_37">
    <path clip-path="url(#p9ded5c0493)" d="
M234.667 17.8969
L254.3 17.8969
L254.3 13.2655
L234.667 13.2655
z
" style="fill:#bfbbd9;"/>
   </g>
   <g id="patch_38">
    <path clip-path="url(#p9ded5c0493)" d="
M255.333 20.3074
L274.967 20.3074
L274.967 18.014
L255.333 18.014
z
" style="fill:#bfbbd9;"/>
   </g>
   <g id="patch_39">
    <path clip-path="url(#p9ded5c0493)" d="
M276 23.0233
L295.633 23.0233
L295.633 17.7507
L276 17.7507
z
" style="fill:#bfbbd9;"/>
   </g>
   <g id="patch_40">
    <path clip-path="url(#p9ded5c0493)" d="
M296.667 26.6798
L316.3 26.6798
L316.3 26.5626
L296.667 26.5626
z
" style="fill:#bfbbd9;"/>
   </g>
   <g id="patch_41">
    <path clip-path="url(#p9ded5c0493)" d="
M317.333 21.9591
L336.967 21.9591
L336.967 21.0272
L317.333 21.0272
z
" style="fill:#bfbbd9;"/>
   </g>
   <g id="patch_42">
    <path clip-path="url(#p9ded5c0493)" d="
M338 39.4915
L357.633 39.4915
L357.633 35.0888
L338 35.0888
z
" style="fill:#bfbbd9;"/>
   </g>
   <g id="patch_43">
    <path clip-path="url(#p9ded5c0493)" d="
M358.667 43.4644
L378.3 43.4644
L378.3 38.8888
L358.667 38.8888
z
" style="fill:#bfbbd9;"/>
   </g>
   <g id="patch_44">
    <path clip-path="url(#p9ded5c0493)" d="
M379.333 44.8762
L398.967 44.8762
L398.967 41.4835
L379.333 41.4835
z
" style="fill:#bfbbd9;"/>
   </g>
   <g id="patch_45">
    <path clip-path="url(#p9ded5c0493)" d="
M400 59.7689
L419.633 59.7689
L419.633 55.1258
L400 55.1258
z
" style="fill:#bfbbd9;"/>
   </g>
   <g id="patch_46">
    <path clip-path="url(#p9ded5c0493)" d="
M420.667 62.5145
L440.3 62.5145
L440.3 60.3551
L420.667 60.3551
z
" style="fill:#bfbbd9;"/>
   </g>
   <g id="patch_47">
    <path clip-path="url(#p9ded5c0493)" d="
M441.333 62.9609
L460.967 62.9609
L460.967 61.8282
L441.333 61.8282
z
" style="fill:#bfbbd9;"/>
   </g>
   <g id="patch_48">
    <path clip-path="url(#p9ded5c0493)" d="
M462 63
L481.633 63
L481.633 62.9833
L462 62.9833
z
" style="fill:#bfbbd9;"/>
   </g>
   <g id="patch_49">
    <path clip-path="url(#p9ded5c0493)" d="
M482.667 63
L502.3 63
L502.3 62.7935
L482.667 62.7935
z
" style="fill:#bfbbd9;"/>
   </g>
   <g id="patch_50">
    <path clip-path="url(#p9ded5c0493)" d="
M503.333 63
L522.967 63
L522.967 62.8549
L503.333 62.8549
z
" style="fill:#bfbbd9;"/>
   </g>
   <g id="patch_51">
    <path clip-path="url(#p9ded5c0493)" d="
M524 63
L543.633 63
L543.633 61.6273
L524 61.6273
z
" style="fill:#bfbbd9;"/>
   </g>
   <g id="patch_52">
    <path clip-path="url(#p9ded5c0493)" d="
M544.667 63
L564.3 63
L564.3 61.4767
L544.667 61.4767
z
" style="fill:#bfbbd9;"/>
   </g>
   <g id="patch_53">
    <path clip-path="url(#p9ded5c0493)" d="
M565.333 52.677
L584.967 52.677
L584.967 43.2133
L565.333 43.2133
z
" style="fill:#bfbbd9;"/>
   </g>
   <g id="patch_54">
    <path clip-path="url(#p9ded5c0493)" d="
M586 54.0274
L605.633 54.0274
L605.633 43.8383
L586 43.8383
z
" style="fill:#bfbbd9;"/>
   </g>
   <g id="patch_55">
    <path clip-path="url(#p9ded5c0493)" d="
M606.667 44.6027
L626.3 44.6027
L626.3 34.3188
L606.667 34.3188
z
" style="fill:#bfbbd9;"/>
   </g>
   <g id="patch_56">
    <path clip-path="url(#p9ded5c0493)" d="
M627.333 41.4724
L646.967 41.4724
L646.967 32.7676
L627.333 32.7676
z
" style="fill:#bfbbd9;"/>
   </g>
   <g id="patch_57">
    <path clip-path="url(#p9ded5c0493)" d="
M90 7.7859
L109.633 7.7859
L109.633 7.7859
L90 7.7859
z
" style="fill:#fa8174;"/>
   </g>
   <g id="patch_58">
    <path clip-path="url(#p9ded5c0493)" d="
M110.667 7.59618
L130.3 7.59618
L130.3 7.59618
L110.667 7.59618
z
" style="fill:#fa8174;"/>
   </g>
   <g id="patch_59">
    <path clip-path="url(#p9ded5c0493)" d="
M131.333 7.74126
L150.967 7.74126
L150.967 7.74126
L131.333 7.74126
z
" style="fill:#fa8174;"/>
   </g>
   <g id="patch_60">
    <path clip-path="url(#p9ded5c0493)" d="
M152 7.74684
L171.633 7.74684
L171.633 7.74684
L152 7.74684
z
" style="fill:#fa8174;"/>
   </g>
   <g id="patch_61">
    <path clip-path="url(#p9ded5c0493)" d="
M172.667 13.8576
L192.3 13.8576
L192.3 13.8576
L172.667 13.8576
z
" style="fill:#fa8174;"/>
   </g>
   <g id="patch_62">
    <path clip-path="url(#p9ded5c0493)" d="
M193.333 17.1826
L212.967 17.1826
L212.967 17.1826
L193.333 17.1826
z
" style="fill:#fa8174;"/>
   </g>
   <g id="patch_63">
    <path clip-path="url(#p9ded5c0493)" d="
M214 17.7127
L233.633 17.7127
L233.633 17.7127
L214 17.7127
z
" style="fill:#fa8174;"/>
   </g>
   <g id="patch_64">
    <path clip-path="url(#p9ded5c0493)" d="
M234.667 13.2655
L254.3 13.2655
L254.3 13.2655
L234.667 13.2655
z
" style="fill:#fa8174;"/>
   </g>
   <g id="patch_65">
    <path clip-path="url(#p9ded5c0493)" d="
M255.333 18.014
L274.967 18.014
L274.967 18.014
L255.333 18.014
z
" style="fill:#fa8174;"/>
   </g>
   <g id="patch_66">
    <path clip-path="url(#p9ded5c0493)" d="
M276 17.7507
L295.633 17.7507
L295.633 17.7507
L276 17.7507
z
" style="fill:#fa8174;"/>
   </g>
   <g id="patch_67">
    <path clip-path="url(#p9ded5c0493)" d="
M296.667 26.5626
L316.3 26.5626
L316.3 26.5626
L296.667 26.5626
z
" style="fill:#fa8174;"/>
   </g>
   <g id="patch_68">
    <path clip-path="url(#p9ded5c0493)" d="
M317.333 21.0272
L336.967 21.0272
L336.967 21.0272
L317.333 21.0272
z
" style="fill:#fa8174;"/>
   </g>
   <g id="patch_69">
    <path clip-path="url(#p9ded5c0493)" d="
M338 35.0888
L357.633 35.0888
L357.633 7.48458
L338 7.48458
z
" style="fill:#fa8174;"/>
   </g>
   <g id="patch_70">
    <path clip-path="url(#p9ded5c0493)" d="
M358.667 38.8888
L378.3 38.8888
L378.3 7.5906
L358.667 7.5906
z
" style="fill:#fa8174;"/>
   </g>
   <g id="patch_71">
    <path clip-path="url(#p9ded5c0493)" d="
M379.333 41.4835
L398.967 41.4835
L398.967 7.42878
L379.333 7.42878
z
" style="fill:#fa8174;"/>
   </g>
   <g id="patch_72">
    <path clip-path="url(#p9ded5c0493)" d="
M400 55.1258
L419.633 55.1258
L419.633 7.43438
L400 7.43438
z
" style="fill:#fa8174;"/>
   </g>
   <g id="patch_73">
    <path clip-path="url(#p9ded5c0493)" d="
M420.667 60.3551
L440.3 60.3551
L440.3 7.33392
L420.667 7.33392
z
" style="fill:#fa8174;"/>
   </g>
   <g id="patch_74">
    <path clip-path="url(#p9ded5c0493)" d="
M441.333 61.8282
L460.967 61.8282
L460.967 7.27812
L441.333 7.27812
z
" style="fill:#fa8174;"/>
   </g>
   <g id="patch_75">
    <path clip-path="url(#p9ded5c0493)" d="
M462 62.9833
L481.633 62.9833
L481.633 7.2
L462 7.2
z
" style="fill:#fa8174;"/>
   </g>
   <g id="patch_76">
    <path clip-path="url(#p9ded5c0493)" d="
M482.667 62.7935
L502.3 62.7935
L502.3 7.21674
L482.667 7.21674
z
" style="fill:#fa8174;"/>
   </g>
   <g id="patch_77">
    <path clip-path="url(#p9ded5c0493)" d="
M503.333 62.8549
L522.967 62.8549
L522.967 62.8549
L503.333 62.8549
z
" style="fill:#fa8174;"/>
   </g>
   <g id="patch_78">
    <path clip-path="url(#p9ded5c0493)" d="
M524 61.6273
L543.633 61.6273
L543.633 61.6273
L524 61.6273
z
" style="fill:#fa8174;"/>
   </g>
   <g id="patch_79">
    <path clip-path="url(#p9ded5c0493)" d="
M544.667 61.4767
L564.3 61.4767
L564.3 61.4767
L544.667 61.4767
z
" style="fill:#fa8174;"/>
   </g>
   <g id="patch_80">
    <path clip-path="url(#p9ded5c0493)" d="
M565.333 43.2133
L584.967 43.2133
L584.967 38.1634
L565.333 38.1634
z
" style="fill:#fa8174;"/>
   </g>
   <g id="patch_81">
    <path clip-path="url(#p9ded5c0493)" d="
M586 43.8383
L605.633 43.8383
L605.633 43.8383
L586 43.8383
z
" style="fill:#fa8174;"/>
   </g>
   <g id="patch_82">
    <path clip-path="url(#p9ded5c0493)" d="
M606.667 34.3188
L626.3 34.3188
L626.3 34.3188
L606.667 34.3188
z
" style="fill:#fa8174;"/>
   </g>
   <g id="patch_83">
    <path clip-path="url(#p9ded5c0493)" d="
M627.333 32.7676
L646.967 32.7676
L646.967 32.7676
L627.333 32.7676
z
" style="fill:#fa8174;"/>
   </g>
   <g id="patch_84">
    <path clip-path="url(#p9ded5c0493)" d="
M90 7.7859
L109.633 7.7859
L109.633 7.2
L90 7.2
z
" style="fill:#fdb462;"/>
   </g>
   <g id="patch_85">
    <path clip-path="url(#p9ded5c0493)" d="
M110.667 7.59618
L130.3 7.59618
L130.3 7.2
L110.667 7.2
z
" style="fill:#fdb462;"/>
   </g>
   <g id="patch_86">
    <path clip-path="url(#p9ded5c0493)" d="
M131.333 7.74126
L150.967 7.74126
L150.967 7.2
L131.333 7.2
z
" style="fill:#fdb462;"/>
   </g>
   <g id="patch_87">
    <path clip-path="url(#p9ded5c0493)" d="
M152 7.74684
L171.633 7.74684
L171.633 7.2
L152 7.2
z
" style="fill:#fdb462;"/>
   </g>
   <g id="patch_88">
    <path clip-path="url(#p9ded5c0493)" d="
M172.667 13.8576
L192.3 13.8576
L192.3 7.2
L172.667 7.2
z
" style="fill:#fdb462;"/>
   </g>
   <g id="patch_89">
    <path clip-path="url(#p9ded5c0493)" d="
M193.333 17.1826
L212.967 17.1826
L212.967 7.2
L193.333 7.2
z
" style="fill:#fdb462;"/>
   </g>
   <g id="patch_90">
    <path clip-path="url(#p9ded5c0493)" d="
M214 17.7127
L233.633 17.7127
L233.633 7.2
L214 7.2
z
" style="fill:#fdb462;"/>
   </g>
   <g id="patch_91">
    <path clip-path="url(#p9ded5c0493)" d="
M234.667 13.2655
L254.3 13.2655
L254.3 7.2
L234.667 7.2
z
" style="fill:#fdb462;"/>
   </g>
   <g id="patch_92">
    <path clip-path="url(#p9ded5c0493)" d="
M255.333 18.014
L274.967 18.014
L274.967 7.2
L255.333 7.2
z
" style="fill:#fdb462;"/>
   </g>
   <g id="patch_93">
    <path clip-path="url(#p9ded5c0493)" d="
M276 17.7507
L295.633 17.7507
L295.633 7.2
L276 7.2
z
" style="fill:#fdb462;"/>
   </g>
   <g id="patch_94">
    <path clip-path="url(#p9ded5c0493)" d="
M296.667 26.5626
L316.3 26.5626
L316.3 7.2
L296.667 7.2
z
" style="fill:#fdb462;"/>
   </g>
   <g id="patch_95">
    <path clip-path="url(#p9ded5c0493)" d="
M317.333 21.0272
L336.967 21.0272
L336.967 7.2
L317.333 7.2
z
" style="fill:#fdb462;"/>
   </g>
   <g id="patch_96">
    <path clip-path="url(#p9ded5c0493)" d="
M338 7.48458
L357.633 7.48458
L357.633 7.2
L338 7.2
z
" style="fill:#fdb462;"/>
   </g>
   <g id="patch_97">
    <path clip-path="url(#p9ded5c0493)" d="
M358.667 7.5906
L378.3 7.5906
L378.3 7.2
L358.667 7.2
z
" style="fill:#fdb462;"/>
   </g>
   <g id="patch_98">
    <path clip-path="url(#p9ded5c0493)" d="
M379.333 7.42878
L398.967 7.42878
L398.967 7.2
L379.333 7.2
z
" style="fill:#fdb462;"/>
   </g>
   <g id="patch_99">
    <path clip-path="url(#p9ded5c0493)" d="
M400 7.43438
L419.633 7.43438
L419.633 7.20558
L400 7.20558
z
" style="fill:#fdb462;"/>
   </g>
   <g id="patch_100">
    <path clip-path="url(#p9ded5c0493)" d="
M420.667 7.33392
L440.3 7.33392
L440.3 7.2
L420.667 7.2
z
" style="fill:#fdb462;"/>
   </g>
   <g id="patch_101">
    <path clip-path="url(#p9ded5c0493)" d="
M441.333 7.27812
L460.967 7.27812
L460.967 7.2
L441.333 7.2
z
" style="fill:#fdb462;"/>
   </g>
   <g id="patch_102">
    <path clip-path="url(#p9ded5c0493)" d="
M462 7.2
L481.633 7.2
L481.633 7.2
L462 7.2
z
" style="fill:#fdb462;"/>
   </g>
   <g id="patch_103">
    <path clip-path="url(#p9ded5c0493)" d="
M482.667 7.21674
L502.3 7.21674
L502.3 7.2
L482.667 7.2
z
" style="fill:#fdb462;"/>
   </g>
   <g id="patch_104">
    <path clip-path="url(#p9ded5c0493)" d="
M503.333 62.8549
L522.967 62.8549
L522.967 62.8438
L503.333 62.8438
z
" style="fill:#fdb462;"/>
   </g>
   <g id="patch_105">
    <path clip-path="url(#p9ded5c0493)" d="
M524 61.6273
L543.633 61.6273
L543.633 61.5213
L524 61.5213
z
" style="fill:#fdb462;"/>
   </g>
   <g id="patch_106">
    <path clip-path="url(#p9ded5c0493)" d="
M544.667 61.4767
L564.3 61.4767
L564.3 61.3427
L544.667 61.3427
z
" style="fill:#fdb462;"/>
   </g>
   <g id="patch_107">
    <path clip-path="url(#p9ded5c0493)" d="
M565.333 38.1634
L584.967 38.1634
L584.967 37.9067
L565.333 37.9067
z
" style="fill:#fdb462;"/>
   </g>
   <g id="patch_108">
    <path clip-path="url(#p9ded5c0493)" d="
M586 43.8383
L605.633 43.8383
L605.633 43.8215
L586 43.8215
z
" style="fill:#fdb462;"/>
   </g>
   <g id="patch_109">
    <path clip-path="url(#p9ded5c0493)" d="
M606.667 34.3188
L626.3 34.3188
L626.3 33.9617
L606.667 33.9617
z
" style="fill:#fdb462;"/>
   </g>
   <g id="patch_110">
    <path clip-path="url(#p9ded5c0493)" d="
M627.333 32.7676
L646.967 32.7676
L646.967 32.6392
L627.333 32.6392
z
" style="fill:#fdb462;"/>
   </g>
   <g id="patch_111">
    <path clip-path="url(#p9ded5c0493)" d="
M90 7.2
L109.633 7.2
L109.633 7.2
L90 7.2
z
" style="fill:#feffb3;"/>
   </g>
   <g id="patch_112">
    <path clip-path="url(#p9ded5c0493)" d="
M110.667 7.2
L130.3 7.2
L130.3 7.2
L110.667 7.2
z
" style="fill:#feffb3;"/>
   </g>
   <g id="patch_113">
    <path clip-path="url(#p9ded5c0493)" d="
M131.333 7.2
L150.967 7.2
L150.967 7.2
L131.333 7.2
z
" style="fill:#feffb3;"/>
   </g>
   <g id="patch_114">
    <path clip-path="url(#p9ded5c0493)" d="
M152 7.2
L171.633 7.2
L171.633 7.2
L152 7.2
z
" style="fill:#feffb3;"/>
   </g>
   <g id="patch_115">
    <path clip-path="url(#p9ded5c0493)" d="
M172.667 7.2
L192.3 7.2
L192.3 7.2
L172.667 7.2
z
" style="fill:#feffb3;"/>
   </g>
   <g id="patch_116">
    <path clip-path="url(#p9ded5c0493)" d="
M193.333 7.2
L212.967 7.2
L212.967 7.2
L193.333 7.2
z
" style="fill:#feffb3;"/>
   </g>
   <g id="patch_117">
    <path clip-path="url(#p9ded5c0493)" d="
M214 7.2
L233.633 7.2
L233.633 7.2
L214 7.2
z
" style="fill:#feffb3;"/>
   </g>
   <g id="patch_118">
    <path clip-path="url(#p9ded5c0493)" d="
M234.667 7.2
L254.3 7.2
L254.3 7.2
L234.667 7.2
z
" style="fill:#feffb3;"/>
   </g>
   <g id="patch_119">
    <path clip-path="url(#p9ded5c0493)" d="
M255.333 7.2
L274.967 7.2
L274.967 7.2
L255.333 7.2
z
" style="fill:#feffb3;"/>
   </g>
   <g id="patch_120">
    <path clip-path="url(#p9ded5c0493)" d="
M276 7.2
L295.633 7.2
L295.633 7.2
L276 7.2
z
" style="fill:#feffb3;"/>
   </g>
   <g id="patch_121">
    <path clip-path="url(#p9ded5c0493)" d="
M296.667 7.2
L316.3 7.2
L316.3 7.2
L296.667 7.2
z
" style="fill:#feffb3;"/>
   </g>
   <g id="patch_122">
    <path clip-path="url(#p9ded5c0493)" d="
M317.333 7.2
L336.967 7.2
L336.967 7.2
L317.333 7.2
z
" style="fill:#feffb3;"/>
   </g>
   <g id="patch_123">
    <path clip-path="url(#p9ded5c0493)" d="
M338 7.2
L357.633 7.2
L357.633 7.2
L338 7.2
z
" style="fill:#feffb3;"/>
   </g>
   <g id="patch_124">
    <path clip-path="url(#p9ded5c0493)" d="
M358.667 7.2
L378.3 7.2
L378.3 7.2
L358.667 7.2
z
" style="fill:#feffb3;"/>
   </g>
   <g id="patch_125">
    <path clip-path="url(#p9ded5c0493)" d="
M379.333 7.2
L398.967 7.2
L398.967 7.2
L379.333 7.2
z
" style="fill:#feffb3;"/>
   </g>
   <g id="patch_126">
    <path clip-path="url(#p9ded5c0493)" d="
M400 7.20558
L419.633 7.20558
L419.633 7.2
L400 7.2
z
" style="fill:#feffb3;"/>
   </g>
   <g id="patch_127">
    <path clip-path="url(#p9ded5c0493)" d="
M420.667 7.2
L440.3 7.2
L440.3 7.2
L420.667 7.2
z
" style="fill:#feffb3;"/>
   </g>
   <g id="patch_128">
    <path clip-path="url(#p9ded5c0493)" d="
M441.333 7.2
L460.967 7.2
L460.967 7.2
L441.333 7.2
z
" style="fill:#feffb3;"/>
   </g>
   <g id="patch_129">
    <path clip-path="url(#p9ded5c0493)" d="
M462 7.2
L481.633 7.2
L481.633 7.2
L462 7.2
z
" style="fill:#feffb3;"/>
   </g>
   <g id="patch_130">
    <path clip-path="url(#p9ded5c0493)" d="
M482.667 7.2
L502.3 7.2
L502.3 7.2
L482.667 7.2
z
" style="fill:#feffb3;"/>
   </g>
   <g id="patch_131">
    <path clip-path="url(#p9ded5c0493)" d="
M503.333 62.8438
L522.967 62.8438
L522.967 7.2
L503.333 7.2
z
" style="fill:#feffb3;"/>
   </g>
   <g id="patch_132">
    <path clip-path="url(#p9ded5c0493)" d="
M524 61.5213
L543.633 61.5213
L543.633 7.2
L524 7.2
z
" style="fill:#feffb3;"/>
   </g>
   <g id="patch_133">
    <path clip-path="url(#p9ded5c0493)" d="
M544.667 61.3427
L564.3 61.3427
L564.3 7.2
L544.667 7.2
z
" style="fill:#feffb3;"/>
   </g>
   <g id="patch_134">
    <path clip-path="url(#p9ded5c0493)" d="
M565.333 37.9067
L584.967 37.9067
L584.967 7.2
L565.333 7.2
z
" style="fill:#feffb3;"/>
   </g>
   <g id="patch_135">
    <path clip-path="url(#p9ded5c0493)" d="
M586 43.8215
L605.633 43.8215
L605.633 7.2
L586 7.2
z
" style="fill:#feffb3;"/>
   </g>
   <g id="patch_136">
    <path clip-path="url(#p9ded5c0493)" d="
M606.667 33.9617
L626.3 33.9617
L626.3 7.2
L606.667 7.2
z
" style="fill:#feffb3;"/>
   </g>
   <g id="patch_137">
    <path clip-path="url(#p9ded5c0493)" d="
M627.333 32.6392
L646.967 32.6392
L646.967 7.2
L627.333 7.2
z
" style="fill:#feffb3;"/>
   </g>
   <g id="line2d_1">
    <path clip-path="url(#p9ded5c0493)" d="
M90 63
L90 7.2" style="fill:none;stroke:#262626;stroke-linecap:round;stroke-width:1.5;"/>
   </g>
   <g id="line2d_2">
    <path clip-path="url(#p9ded5c0493)" d="
M171.633 63
L171.633 7.2" style="fill:none;stroke:#262626;stroke-linecap:round;stroke-width:1.5;"/>
   </g>
   <g id="line2d_3">
    <path clip-path="url(#p9ded5c0493)" d="
M254.3 63
L254.3 7.2" style="fill:none;stroke:#262626;stroke-linecap:round;stroke-width:1.5;"/>
   </g>
   <g id="line2d_4">
    <path clip-path="url(#p9ded5c0493)" d="
M336.967 63
L336.967 7.2" style="fill:none;stroke:#262626;stroke-linecap:round;stroke-width:1.5;"/>
   </g>
   <g id="line2d_5">
    <path clip-path="url(#p9ded5c0493)" d="
M398.967 63
L398.967 7.2" style="fill:none;stroke:#262626;stroke-linecap:round;stroke-width:1.5;"/>
   </g>
   <g id="line2d_6">
    <path clip-path="url(#p9ded5c0493)" d="
M502.3 63
L502.3 7.2" style="fill:none;stroke:#262626;stroke-linecap:round;stroke-width:1.5;"/>
   </g>
   <g id="line2d_7">
    <path clip-path="url(#p9ded5c0493)" d="
M564.3 63
L564.3 7.2" style="fill:none;stroke:#262626;stroke-linecap:round;stroke-width:1.5;"/>
   </g>
   <g id="line2d_8">
    <path clip-path="url(#p9ded5c0493)" d="
M646.967 63
L646.967 7.2" style="fill:none;stroke:#262626;stroke-linecap:round;stroke-width:1.5;"/>
   </g>
   <g id="line2d_9">
    <path clip-path="url(#p9ded5c0493)" d="
M90 62.9721
L648 62.9721" style="fill:none;stroke:#262626;stroke-linecap:round;stroke-width:1.3;"/>
   </g>
   <g id="line2d_10">
    <path clip-path="url(#p9ded5c0493)" d="
M90 7.2
L648 7.2" style="fill:none;stroke:#262626;stroke-linecap:round;stroke-width:1.3;"/>
   </g>
   <g id="patch_138">
    <path d="
M90 7.2
L648 7.2" style="fill:none;"/>
   </g>
   <g id="patch_139">
    <path d="
M648 63
L648 7.2" style="fill:none;"/>
   </g>
   <g id="patch_140">
    <path d="
M90 63
L648 63" style="fill:none;"/>
   </g>
   <g id="patch_141">
    <path d="
M90 63
L90 7.2" style="fill:none;"/>
   </g>
  </g>
 </g>
 <defs>
  <clipPath id="p9ded5c0493">
   <rect height="55.8" width="558.0" x="90.0" y="7.2"/>
  </clipPath>
 </defs>
</svg>
